<?xml version="1.0" encoding="UTF-8"?>
<svg version="1.1" xmlns="http://www.w3.org/2000/svg" width="1272" height="665">
<path d="M0 0 C419.76 0 839.52 0 1272 0 C1272 219.45 1272 438.9 1272 665 C852.24 665 432.48 665 0 665 C0 445.55 0 226.1 0 0 Z " fill="#FEFEFE" transform="translate(0,0)"/>
<path d="M0 0 C0.86238281 0.27150879 1.72476562 0.54301758 2.61328125 0.82275391 C29.10167354 9.30409733 55.74352597 20.69150412 77 39 C78.62342092 40.25205012 80.24848006 41.50197841 81.875 42.75 C104.49087826 60.88537407 121.924911 86.12572293 127 115 C127.28328695 118.05072187 127.34934114 121.0817831 127.37109375 124.14453125 C127.38769547 125.41036293 127.38769547 125.41036293 127.40463257 126.70176697 C127.43139406 129.40553191 127.43788989 132.10860875 127.4375 134.8125 C127.43889984 135.73285034 127.44029968 136.65320068 127.44174194 137.60144043 C127.42488604 151.03046397 126.71944969 163.30468033 122 176 C121.6390625 177.13179687 121.278125 178.26359375 120.90625 179.4296875 C115.59419537 194.94847568 106.49533446 208.55862096 96 221 C95.42378906 221.71671875 94.84757812 222.4334375 94.25390625 223.171875 C91.19169024 226.92288214 87.79418394 230.0800773 84.09765625 233.203125 C82.74079682 234.36542544 81.41229649 235.56204493 80.12109375 236.796875 C52.43015579 263.02469099 12.14890952 278.09363846 -24.9375 284.421875 C-27.90161611 284.83683455 -27.90161611 284.83683455 -30 286 C-31.80939382 286.28956845 -33.62617457 286.53369482 -35.4453125 286.75390625 C-36.8996167 286.93288452 -36.8996167 286.93288452 -38.38330078 287.11547852 C-39.61806152 287.26299561 -40.85282227 287.4105127 -42.125 287.5625 C-46.04375 288.036875 -49.9625 288.51125 -54 289 C-39.81 289.33 -25.62 289.66 -11 290 C-11 290.33 -11 290.66 -11 291 C-64.46 291 -117.92 291 -173 291 C-173 290.67 -173 290.34 -173 290 C-151.715 289.505 -151.715 289.505 -130 289 C-133.135 288.608125 -136.27 288.21625 -139.5 287.8125 C-178.79439389 282.57680514 -218.71521911 270.82178008 -251 247 C-252.13308594 246.18015625 -252.13308594 246.18015625 -253.2890625 245.34375 C-259.93408069 240.36585651 -265.9659039 234.68760039 -272 229 C-272.67289063 228.36964844 -273.34578125 227.73929688 -274.0390625 227.08984375 C-295.55761442 206.30822854 -310.53124338 174.81682387 -311.30078125 144.7421875 C-311.32013849 142.1198602 -311.32355068 139.49737546 -311.3125 136.875 C-311.30976578 135.84986298 -311.30976578 135.84986298 -311.30697632 134.80401611 C-311.23674975 119.16247831 -309.51216231 105.40838092 -303 91 C-302.49597656 89.87078125 -301.99195313 88.7415625 -301.47265625 87.578125 C-292.18423548 67.90852807 -277.42189058 50.94969864 -260 38 C-258.99324219 37.22785156 -257.98648438 36.45570313 -256.94921875 35.66015625 C-186.49400151 -17.33171178 -82.42208804 -26.00547162 0 0 Z " fill="#33357A" transform="translate(347,193)"/>
<path d="M0 0 C15.2993358 1.6598336 30.46575968 5.40877608 45.02685547 10.34082031 C47.1262215 11.04216754 49.23511641 11.70664031 51.34765625 12.3671875 C64.79182532 16.62475047 77.83160729 21.82335948 90 29 C89.95359375 29.9178125 89.9071875 30.835625 89.859375 31.78125 C89.58263173 41.1905213 90.36683035 46.58128016 96.3125 53.8125 C100.85030193 57.50605971 104.84016945 59.03367194 110.625 59.0625 C112.9375 59.2421875 112.9375 59.2421875 115 60 C116.64497001 62.36911442 117.65308001 64.75541671 118.75390625 67.41796875 C121.17615322 72.43710746 125.86010702 75.96080333 131 78 C132.97669865 78.11691615 134.9573861 78.17501504 136.9375 78.1875 C142.50503987 78.5577717 142.50503987 78.5577717 144.61328125 80.44140625 C145.37572014 81.6544963 146.10115451 82.89158305 146.7890625 84.1484375 C149.48854463 88.27603275 154.44336901 90.481123 159 92 C160.9385274 91.868527 162.8759813 91.72083172 164.8125 91.5625 C170.39212289 91.48855319 170.39212289 91.48855319 172.9453125 93.63671875 C174.40577052 95.70506374 175.69546422 97.83131313 177 100 C183.36025126 105.89486702 189.0884797 106.43448399 197.53515625 106.328125 C203.07756584 105.80325194 207.01688676 103.98311324 211 100 C214.06211547 100.40613321 216.55416029 101.73335185 219.3125 103.0625 C226.87831978 106.10223852 235.38551925 106.55151896 243.1484375 103.94140625 C247.8728224 101.84170909 247.8728224 101.84170909 251 98 C251.61746094 98.03480469 252.23492187 98.06960938 252.87109375 98.10546875 C261.78383334 98.39035084 268.8777491 96.86463076 275.55859375 90.6953125 C277.83991347 88.0121343 278.87074726 85.32133159 280 82 C280.67804688 81.98582031 281.35609375 81.97164063 282.0546875 81.95703125 C289.85335276 81.55737666 296.81024277 79.92420924 302.6640625 74.44140625 C306.67706387 69.73610347 308.30797136 66.11291964 309 60 C309.845625 59.90203125 310.69125 59.8040625 311.5625 59.703125 C322.56244125 58.33486164 322.56244125 58.33486164 331.59375 52.41796875 C336.04529076 46.54440802 335.65550529 40.07945714 335 33 C334.68343302 31.66258674 334.35330071 30.32818203 334 29 C340.53526399 25.5313436 347.21904652 22.9673799 354.1875 20.5 C355.23486328 20.12230469 356.28222656 19.74460937 357.36132812 19.35546875 C369.68409292 14.95286033 382.19566454 11.3296879 394.8125 7.875 C396.06998047 7.52824219 397.32746094 7.18148438 398.62304688 6.82421875 C402.07972755 5.87404112 405.53878098 4.9334949 409 4 C409.83321777 3.77344727 410.66643555 3.54689453 411.52490234 3.31347656 C414.84596277 2.43963453 417.53067677 2 421 2 C422.32194625 28.95301514 412.77999012 52.84528517 395 73 C393.90171875 74.28003906 393.90171875 74.28003906 392.78125 75.5859375 C371.30995896 100.15695717 340.76189646 116.92074166 310 127 C309.25363281 127.26039063 308.50726563 127.52078125 307.73828125 127.7890625 C305.50282486 128.56402071 303.25605039 129.28701919 301 130 C299.81535156 130.38027344 298.63070313 130.76054687 297.41015625 131.15234375 C286.08875326 134.69609048 274.70616213 137.11740863 263 139 C261.88334961 139.18481934 260.76669922 139.36963867 259.61621094 139.56005859 C242.79335928 142.26022002 226.2820069 143.37728733 209.25 143.375 C207.95348007 143.37771912 207.95348007 143.37771912 206.63076782 143.38049316 C190.25111657 143.37659274 173.94432196 142.17795066 157.8125 139.25 C156.87019531 139.08081055 155.92789063 138.91162109 154.95703125 138.73730469 C115.73559911 131.47359867 77.44453812 118.23677769 46 93 C45.4445752 92.55817383 44.88915039 92.11634766 44.31689453 91.66113281 C23.71614388 75.14605405 5.74552363 52.17535548 0.38671875 25.72265625 C-0.50002745 17.18660447 -0.22496846 8.56841412 0 0 Z " fill="#00BAFD" transform="translate(45,315)"/>
<path d="M0 0 C2.89216779 0.97563302 5.77066242 1.97800927 8.64257812 3.01220703 C41.32493929 14.66052569 69.60648849 24.11035672 103.90234375 14.20751953 C106.23632812 13.75439453 106.23632812 13.75439453 109.23632812 14.75439453 C108.74003906 15.23908203 108.24375 15.72376953 107.73242188 16.22314453 C103.66074967 20.2407338 99.74744245 24.32314555 96.04492188 28.68408203 C94.7489943 30.16754124 93.40089269 31.60603771 92.02148438 33.01220703 C87.5777119 37.57397234 87.5777119 37.57397234 85.42382812 43.44189453 C86.42144264 47.50909219 88.04358372 50.12178072 91.23632812 52.75439453 C99.91226389 57.24728984 110.33415874 58.47160824 119.79882812 55.69189453 C127.85928491 52.5452991 134.65003389 47.25380908 141.41186523 41.97167969 C163.45105579 24.76403551 163.45105579 24.76403551 175.23632812 25.75439453 C187.58917171 27.87449728 197.4559999 37.35454398 206.58349609 45.31933594 C209.25563262 47.63939776 211.96677511 49.91279022 214.67382812 52.19189453 C222.9324041 59.1734488 231.18131513 66.17143666 239.29882812 73.31689453 C242.69400062 76.30493713 246.15101626 79.21740824 249.61132812 82.12939453 C254.41681833 86.17427381 259.10569569 90.32311423 263.74804688 94.55517578 C267.35388288 97.74212346 271.11300054 100.72891706 274.88867188 103.71142578 C277.87428559 106.30955552 279.9527968 108.18347774 280.66992188 112.15673828 C280.67644407 116.38964092 280.65750456 119.03237779 278.48632812 122.75439453 C274.81778115 126.01532517 271.89442297 127.08611699 266.98632812 127.25439453 C266.09429687 127.30595703 265.20226562 127.35751953 264.28320312 127.41064453 C256.50458044 125.73524888 250.46307548 118.2963091 244.92382812 112.94189453 C234.40160202 101.53380335 234.40160202 101.53380335 221.23632812 94.75439453 C222.97722812 99.37951828 222.97722812 99.37951828 225.23632812 103.75439453 C226.22632813 104.08439453 227.21632813 104.41439453 228.23632812 104.75439453 C228.23632812 105.41439453 228.23632812 106.07439453 228.23632812 106.75439453 C229.22632813 107.08439453 230.21632813 107.41439453 231.23632812 107.75439453 C231.23632812 108.41439453 231.23632812 109.07439453 231.23632812 109.75439453 C232.22632813 110.08439453 233.21632813 110.41439453 234.23632812 110.75439453 C235.63867188 112.18017578 235.63867188 112.18017578 237.17382812 114.06689453 C240.95166866 118.54343245 245.04991487 122.62725365 249.23608398 126.71655273 C254.0931257 131.49421322 254.0931257 131.49421322 254.54882812 135.50439453 C254.14822259 139.6706921 252.8910725 141.5407566 250.23632812 144.75439453 C244.88120973 148.79805536 240.97703797 150.32564113 234.23632812 149.75439453 C228.277792 146.49554706 223.87525726 141.58309779 219.17382812 136.75439453 C212.64580491 129.73876801 212.64580491 129.73876801 205.23632812 123.75439453 C203.91632813 123.75439453 202.59632813 123.75439453 201.23632812 123.75439453 C201.79704583 127.69750616 203.67851664 129.6487918 206.36132812 132.50439453 C207.17472656 133.38353516 207.988125 134.26267578 208.82617188 135.16845703 C209.62152344 136.02181641 210.416875 136.87517578 211.23632812 137.75439453 C213.61369206 140.38528018 215.94492704 143.04835896 218.23632812 145.75439453 C218.81898438 146.43501953 219.40164063 147.11564453 220.00195312 147.81689453 C222.44631338 150.832367 224.06421064 153.09240419 225.04882812 156.87939453 C224.00767935 160.56345944 222.59107031 162.29470044 219.55273438 164.59033203 C214.78262873 166.98745089 210.34815522 167.17108225 205.23632812 165.75439453 C201.34465151 162.88183323 198.39076565 159.39739814 195.23632812 155.75439453 C193.80514018 154.41234632 192.34904033 153.09599764 190.86132812 151.81689453 C190.25546875 151.29224609 189.64960938 150.76759766 189.02539062 150.22705078 C184.60707154 146.54505198 184.60707154 146.54505198 179.23632812 144.75439453 C180.34168764 150.2811921 183.14032692 152.930512 187.06445312 156.66845703 C189.19233062 158.71213794 191.20086349 160.81130574 193.17382812 163.00439453 C193.73972656 163.62830078 194.305625 164.25220703 194.88867188 164.89501953 C196.31704712 166.86576335 196.82048375 168.37513307 197.23632812 170.75439453 C191.30353619 174.96656508 185.25751207 174.50468978 178.23632812 173.75439453 C175.16252836 172.72384628 172.98801737 171.51547565 170.23632812 169.75439453 C170.39359375 169.05830078 170.55085937 168.36220703 170.71289062 167.64501953 C172.17321354 159.58054967 172.46200481 151.71381317 167.83398438 144.68798828 C161.91214044 137.52096444 155.19592111 135.4567172 146.23632812 133.75439453 C146.14996094 132.89716797 146.06359375 132.03994141 145.97460938 131.15673828 C144.95817169 121.32354934 144.95817169 121.32354934 139.23632812 113.75439453 C132.00652823 109.4647864 125.98724334 108.51695004 117.71289062 108.89111328 C115.23632812 108.75439453 115.23632812 108.75439453 113.11132812 106.56689453 C112.49257812 105.63876953 111.87382812 104.71064453 111.23632812 103.75439453 C103.68179038 98.06156568 95.33670102 97.73729403 86.23632812 98.75439453 C83.98202865 99.70800318 83.98202865 99.70800318 82.23632812 100.75439453 C78.26767115 100.4898174 75.43572152 97.93270493 72.23632812 95.75439453 C67.32328923 94.1167149 62.35654682 94.09828611 57.23632812 94.75439453 C54.92094892 96.1066486 54.92094892 96.1066486 52.86132812 97.75439453 C50.64648438 99.13330078 50.64648438 99.13330078 48.23632812 99.75439453 C45.44878602 98.64333165 43.08481246 97.20846879 40.58227539 95.5637207 C34.49122788 91.64482201 28.06355977 89.1120939 21.29882812 86.56689453 C20.23994385 86.16398193 19.18105957 85.76106934 18.09008789 85.34594727 C4.25339578 80.15969993 -9.51259098 75.8955301 -23.88867188 72.56689453 C-26.09101948 72.05331984 -28.29282127 71.53766767 -30.49362183 71.01750183 C-32.46291803 70.55251195 -34.43380431 70.09427112 -36.40478516 69.63647461 C-39.3245839 68.86970379 -41.99859372 67.95329714 -44.76367188 66.75439453 C-42.52299382 42.10693593 -25.20575116 20.96191648 -7.76367188 4.75439453 C-7.16683594 4.17689453 -6.57 3.59939453 -5.95507812 3.00439453 C-2.32800301 -0.32419311 -2.32800301 -0.32419311 0 0 Z " fill="#FDFDFD" transform="translate(91.763671875,239.24560546875)"/>
<path d="M0 0 C2.32829356 0.90885143 4.66149804 1.80524699 7 2.6875 C10.17801316 3.89166905 13.30112984 5.13314561 16.41015625 6.5078125 C40.25726184 16.42031994 69.71598975 13.78053537 94 7 C94.67482422 6.81356934 95.34964844 6.62713867 96.04492188 6.43505859 C101.14102647 4.98275107 105.82040524 3.16293781 110.5 0.6875 C114 -1 114 -1 115.98168945 -0.81542969 C118.47095715 0.19027421 119.88019554 1.47601411 121.79296875 3.359375 C122.50138916 4.05627441 123.20980957 4.75317383 123.93969727 5.47119141 C124.68147217 6.22319824 125.42324707 6.97520508 126.1875 7.75 C126.95054443 8.52134277 127.71358887 9.29268555 128.49975586 10.08740234 C134.52501325 16.29321826 139.57429055 22.53668549 144 30 C144.34853027 30.58458984 144.69706055 31.16917969 145.05615234 31.77148438 C150.70265292 41.37538323 157.68989277 53.57365094 157 65 C155.9790625 65.20753906 154.958125 65.41507812 153.90625 65.62890625 C126.24876662 71.41775722 98.30404987 79.90350943 72.6315918 91.75170898 C66.78885497 94.38260139 66.78885497 94.38260139 63 93 C60.58984375 91.03125 60.58984375 91.03125 57.9375 88.5 C54.22985743 85.01721446 50.46902278 81.68888487 46.5 78.5 C42.71539666 75.44651321 39.07792463 72.29331699 35.5 69 C31.13230508 64.98394153 26.63150764 61.20614546 22.015625 57.48046875 C18.45328631 54.55030675 14.97554256 51.53209772 11.5 48.5 C5.42758325 43.21220001 -0.71327044 38.0328666 -7 33 C-7.84159668 32.32275879 -7.84159668 32.32275879 -8.70019531 31.63183594 C-22.03916548 20.91598038 -31.43392017 13.6318371 -49.35546875 15.20703125 C-59.81973727 16.9415457 -68.39646721 24.07540315 -76.2734375 30.7265625 C-86.58488736 39.32436166 -96.10893528 46.35106099 -109.90234375 46.30078125 C-114.37416728 45.86656888 -117.20034024 44.33825216 -121 42 C-120.67 40.35 -120.34 38.7 -120 37 C-119.34 37 -118.68 37 -118 37 C-117.73574219 36.40703125 -117.47148437 35.8140625 -117.19921875 35.203125 C-115.95629575 32.91970946 -114.69598354 31.52573277 -112.8125 29.75 C-110.26329151 27.2797959 -107.87180507 24.75845477 -105.5625 22.0625 C-76.9757076 -10.81546654 -39.41770613 -17.37962497 0 0 Z " fill="#FDFDFD" transform="translate(307,243)"/>
<path d="M0 0 C1.72703156 0.00323273 1.72703156 0.00323273 3.48895264 0.00653076 C29.7751823 0.08555069 54.06315579 2.72219629 79.5625 9.3125 C80.57844238 9.56966797 81.59438477 9.82683594 82.64111328 10.09179688 C93.29829385 12.80133721 103.55632211 15.68931099 113.5625 20.3125 C114.9583165 20.91841203 116.35557467 21.52100885 117.75390625 22.12109375 C130.62469711 27.67492816 143.01888314 33.58748716 154.5 41.6875 C155.11004883 42.11659668 155.72009766 42.54569336 156.34863281 42.98779297 C157.79467575 44.04141064 159.18506415 45.17065025 160.5625 46.3125 C160.5625 46.9725 160.5625 47.6325 160.5625 48.3125 C128.5850478 61.32275484 95.55066168 63.98748256 63.08984375 50.8203125 C60.04862089 49.52029918 57.05240765 48.16276468 54.0625 46.75 C49.61616795 44.66788076 45.1147956 43.08909775 40.4375 41.625 C39.79232422 41.42253662 39.14714844 41.22007324 38.48242188 41.01147461 C36.51640445 40.41414991 34.54474408 39.85350339 32.5625 39.3125 C31.86382812 39.12123535 31.16515625 38.9299707 30.4453125 38.73291016 C24.53515926 37.25930147 18.88718986 37.00045926 12.8125 37.0625 C11.843125 37.06999268 10.87375 37.07748535 9.875 37.08520508 C-7.71113083 37.34823294 -27.43897558 41.31397558 -40.4375 54.3125 C-43.33145333 54.78430755 -46.22225168 55.21480189 -49.125 55.625 C-56.46337443 56.71191083 -63.37254647 58.21900669 -70.45703125 60.4453125 C-96.59992321 68.05176337 -130.14804223 55.33371273 -154.4375 45.3125 C-154.4375 44.6525 -154.4375 43.9925 -154.4375 43.3125 C-133.71185939 27.79810491 -107.50381618 17.13712218 -82.54736328 10.84619141 C-80.52544421 10.33474555 -78.51063553 9.80139138 -76.49609375 9.26171875 C-69.07298969 7.30156996 -61.59569744 5.66645663 -54.0625 4.1875 C-53.27383545 4.02886475 -52.4851709 3.87022949 -51.67260742 3.70678711 C-34.4838619 0.44197198 -17.4511517 -0.05861456 0 0 Z " fill="#00BAFD" transform="translate(253.4375,188.6875)"/>
<path d="M0 0 C9.54537129 6.47597054 13.98278113 13.99175793 16.76953125 25.05078125 C17.02349854 28.45150757 17.02349854 28.45150757 17.02832031 32.03662109 C17.03182495 32.69618301 17.03532959 33.35574493 17.03894043 34.03529358 C17.04767126 36.19421224 17.0419382 38.35279732 17.03515625 40.51171875 C17.03650571 42.0271511 17.03844858 43.54258303 17.04095459 45.05801392 C17.04389443 48.22686911 17.03964627 51.39561114 17.03027344 54.56445312 C17.01889912 58.60467263 17.02543274 62.64462576 17.03741837 66.68483543 C17.0446846 69.81287603 17.04232696 72.94085467 17.03716278 76.06889725 C17.03583841 77.55748146 17.03743099 79.04607149 17.04212189 80.5346489 C17.08025898 96.04050488 14.63634829 108.51873602 3.7578125 120.265625 C-1.61356453 125.08825624 -7.42775151 127.78320884 -14.23046875 130.05078125 C-9.28046875 130.38078125 -4.33046875 130.71078125 0.76953125 131.05078125 C0.76953125 131.38078125 0.76953125 131.71078125 0.76953125 132.05078125 C-18.04046875 132.05078125 -36.85046875 132.05078125 -56.23046875 132.05078125 C-56.23046875 131.72078125 -56.23046875 131.39078125 -56.23046875 131.05078125 C-50.95046875 130.72078125 -45.67046875 130.39078125 -40.23046875 130.05078125 C-41.88046875 129.51453125 -43.53046875 128.97828125 -45.23046875 128.42578125 C-55.98619033 124.49076116 -63.28841872 117.57402445 -68.10546875 107.23828125 C-70.23046875 102.39354855 -70.23046875 102.39354855 -70.23046875 100.05078125 C-66.06453676 99.84599527 -61.89991082 99.72265098 -57.73046875 99.61328125 C-55.97089844 99.52530273 -55.97089844 99.52530273 -54.17578125 99.43554688 C-48.12030715 99.31647856 -44.21093277 99.36190203 -39.57421875 103.515625 C-38.98833984 104.14976318 -38.40246094 104.78390137 -37.79882812 105.43725586 C-34.99020304 108.32676445 -31.80763772 108.2617223 -27.98046875 108.36328125 C-22.4483697 108.29750993 -19.60397159 107.44247733 -15.23046875 104.05078125 C-9.50532031 97.37144141 -8.0205031 88.58315218 -7.23046875 80.05078125 C-7.89046875 80.05078125 -8.55046875 80.05078125 -9.23046875 80.05078125 C-9.43671875 80.60765625 -9.64296875 81.16453125 -9.85546875 81.73828125 C-13.08118679 87.1633525 -18.33152085 90.17176841 -24.23046875 92.05078125 C-34.5609773 93.23049982 -44.74513209 92.62333973 -53.46875 86.47265625 C-55.51726989 84.75976956 -57.37997125 82.97464649 -59.23046875 81.05078125 C-59.77445313 80.50421875 -60.3184375 79.95765625 -60.87890625 79.39453125 C-70.74447078 68.7777816 -72.62082894 56.16725797 -72.54296875 42.17578125 C-72.5373291 41.11657471 -72.53168945 40.05736816 -72.52587891 38.96606445 C-72.30911931 25.03657765 -69.13035702 13.0027008 -59.35546875 2.61328125 C-43.76983731 -11.90362117 -17.19231899 -10.37359997 0 0 Z " fill="#333378" transform="translate(805.23046875,351.94921875)"/>
<path d="M0 0 C0.99386719 0.00902344 1.98773437 0.01804688 3.01171875 0.02734375 C4.15060547 0.04474609 4.15060547 0.04474609 5.3125 0.0625 C5.4055824 11.9463363 5.47645799 23.83008446 5.51974869 35.71421242 C5.54053634 41.23376051 5.56869125 46.75305738 5.61425781 52.27246094 C5.65803212 57.60876272 5.68170328 62.94482435 5.69200897 68.28129196 C5.69934404 70.3072525 5.71366608 72.33320136 5.73542023 74.35905838 C5.90119439 90.45112455 5.32591794 105.82474886 -6.60546875 118.0234375 C-19.45234783 129.80181406 -33.11773994 129.8640957 -49.79101562 129.25341797 C-59.69945812 128.60031598 -68.35513891 124.79602942 -75.6875 118.0625 C-87.7933249 103.99568834 -87.52162173 86.61612837 -86.6875 69.0625 C-85.25224989 57.1669525 -79.90583506 46.14535915 -71.125 37.97265625 C-62.08831094 30.89102011 -52.9366883 29.2779987 -41.6875 30.0625 C-33.40272148 31.63834598 -27.58498176 35.05208774 -21.6875 41.0625 C-21.6781543 40.28648437 -21.66880859 39.51046875 -21.65917969 38.7109375 C-21.60516563 35.16083713 -21.52157697 31.61201052 -21.4375 28.0625 C-21.42332031 26.84175781 -21.40914062 25.62101562 -21.39453125 24.36328125 C-21.2007297 17.1926239 -20.70717683 12.08845801 -16.6875 6.0625 C-14.65234375 4.22265625 -14.65234375 4.22265625 -12.625 3.125 C-11.61759766 2.55458984 -11.61759766 2.55458984 -10.58984375 1.97265625 C-6.90483691 0.2096037 -4.03422766 -0.0474615 0 0 Z " fill="#333378" transform="translate(1128.6875,179.9375)"/>
<path d="M0 0 C7.96413243 6.73663312 13.9747724 16.5601609 16.125 26.8125 C16.3781054 30.97570041 16.3563418 35.14239341 16.375 39.3125 C16.395625 40.43398438 16.41625 41.55546875 16.4375 42.7109375 C16.50303344 56.89892729 12.84563355 71.6418365 2.87890625 82.28515625 C-5.47312441 89.55830544 -14.40888224 92.29701957 -25.33203125 91.9921875 C-33.70396653 91.40062218 -39.71338712 89.76066209 -45.875 83.8125 C-46.88672583 82.48804214 -47.88826319 81.15567841 -48.875 79.8125 C-48.88116333 81.31031006 -48.88116333 81.31031006 -48.88745117 82.83837891 C-48.90931323 86.56252836 -48.96367401 90.28563182 -49.02758789 94.00927734 C-49.05070671 95.61724786 -49.06514924 97.22536848 -49.07055664 98.83349609 C-49.07989196 101.15296299 -49.12097459 103.47008914 -49.16796875 105.7890625 C-49.16206978 106.85817368 -49.16206978 106.85817368 -49.15605164 107.94888306 C-49.32078061 113.65354762 -50.92254162 115.98022374 -54.875 119.8125 C-58.64700508 122.44997612 -62.71000165 122.03890456 -67.125 121.9375 C-67.87007812 121.92847656 -68.61515625 121.91945313 -69.3828125 121.91015625 C-71.21368059 121.88668358 -73.04438238 121.85081525 -74.875 121.8125 C-74.9446578 109.33801392 -74.99789137 96.86357449 -75.03043652 84.38893318 C-75.04606032 78.5958072 -75.06723859 72.80281476 -75.10131836 67.00976562 C-75.13402892 61.41413951 -75.1518777 55.81864148 -75.15963173 50.22292709 C-75.16515426 48.09319926 -75.17593825 45.96347806 -75.19219017 43.83380508 C-75.21411984 40.83973554 -75.21696044 37.84618833 -75.21557617 34.85205078 C-75.226362 33.9809819 -75.23714783 33.10991302 -75.2482605 32.21244812 C-75.19509866 21.51406603 -71.88100447 12.89112918 -64.875 4.8125 C-47.79678659 -11.48659784 -19.2121469 -13.58044554 0 0 Z " fill="#323277" transform="translate(616.875,353.1875)"/>
<path d="M0 0 C8.46857874 7.00069176 13.44682039 15.50882772 15.65625 26.25 C16.09086727 31.07017273 16.12119178 35.85026338 16.09375 40.6875 C16.11373047 41.93337891 16.13371094 43.17925781 16.15429688 44.46289062 C16.14757695 57.26434499 12.31882087 68.83268477 3.65625 78.4765625 C-7.22923018 88.85664538 -20.25727255 91.66042954 -34.87768555 91.61865234 C-48.16020342 91.2574031 -58.95439183 86.16082157 -68.09375 76.5625 C-79.24887756 62.95482666 -80.69896229 47.16198901 -79.34375 30.25 C-77.37846816 17.4711811 -70.26987271 5.29333941 -59.9921875 -2.54296875 C-42.00727993 -14.10469505 -16.99274328 -12.68791498 0 0 Z " fill="#323277" transform="translate(1220.34375,218.75)"/>
<path d="M0 0 C9.63365211 7.64497943 15.98883571 18.8306128 18 31 C19.5539137 49.58104074 17.01581445 64.2422997 5.2734375 79.19921875 C-2.2754672 87.44577104 -14.28973127 91.8493135 -25.296875 92.46875 C-27.11429357 92.50283586 -28.93230625 92.5127089 -30.75 92.5 C-31.70865967 92.49427979 -32.66731934 92.48855957 -33.6550293 92.48266602 C-45.66311819 92.18279194 -56.41096557 88.77761603 -65 80 C-74.72860688 68.63351407 -78.17713465 56.33373507 -78.1875 41.6875 C-78.19974609 40.78837891 -78.21199219 39.88925781 -78.22460938 38.96289062 C-78.2437059 30.15939387 -76.95904173 23.00963804 -72.625 15.25 C-72.03976562 14.18265625 -71.45453125 13.1153125 -70.8515625 12.015625 C-69.07552999 9.12301508 -67.27075472 6.5230608 -65 4 C-64.34 4 -63.68 4 -63 4 C-63 3.34 -63 2.68 -63 2 C-46.57219062 -11.6624066 -17.42813541 -12.5571139 0 0 Z " fill="#323277" transform="translate(910,353)"/>
<path d="M0 0 C2.00440376 1.55341291 3.80654509 3.05588343 5.5 4.9375 C8.41275572 3.59364581 10.7170662 2.03538886 13.1875 0 C22.03831392 -6.61788463 31.77670411 -7.15056059 42.5 -6.0625 C52.49536227 -4.32370066 61.00538289 -0.17084711 67.12109375 8.140625 C68.44599646 10.38942128 69.52279914 12.51477936 70.5 14.9375 C70.74652313 15.48966187 70.99304626 16.04182373 71.24703979 16.61071777 C74.20154082 24.06301318 73.8806648 31.59619169 73.79296875 39.47265625 C73.78736306 40.96194529 73.78309757 42.45123992 73.78010559 43.9405365 C73.76873325 47.83189573 73.73933328 51.72291101 73.70599365 55.61413574 C73.67512711 59.59622548 73.66156507 63.5783716 73.64648438 67.56054688 C73.61445481 75.35303842 73.56175084 83.14517691 73.5 90.9375 C66.24 90.9375 58.98 90.9375 51.5 90.9375 C51.4906543 89.13152344 51.48130859 87.32554687 51.47167969 85.46484375 C51.43604633 79.4735939 51.38218169 73.48273608 51.31609726 67.49176025 C51.27671898 63.8621652 51.24448381 60.23280923 51.22900391 56.60302734 C51.21377283 53.09490773 51.17921567 49.58744583 51.13169098 46.07962036 C51.10980401 44.10127797 51.10753182 42.12274967 51.10565186 40.14428711 C50.98952874 32.95580372 50.43092465 28.02575134 46.5 21.9375 C42.18548328 17.88446915 37.76626632 17.59417684 32.07421875 17.65234375 C27.22925896 18.18903884 23.96205299 20.37797681 20.625 23.9375 C18.41225969 27.87126054 18.35810189 31.62519597 18.29467773 36.08300781 C18.27473251 37.32399231 18.25478729 38.56497681 18.23423767 39.84356689 C18.21725607 41.192585 18.20037717 42.54160441 18.18359375 43.890625 C18.16301124 45.27496951 18.14201443 46.65930792 18.12062073 48.04364014 C18.06553393 51.680044 18.01606586 55.31650333 17.96777344 58.95300293 C17.91746036 62.66663525 17.86182558 66.38018744 17.80664062 70.09375 C17.69922293 77.37493392 17.59823394 84.65618533 17.5 91.9375 C9.91 91.9375 2.32 91.9375 -5.5 91.9375 C-5.5093457 90.03540771 -5.51869141 88.13331543 -5.52832031 86.17358398 C-5.56392048 79.87101764 -5.61776446 73.56881089 -5.68390274 67.2664938 C-5.72331947 63.4474211 -5.75553603 59.62857695 -5.77099609 55.80932617 C-5.7862015 52.11967741 -5.82071426 48.43065722 -5.86830902 44.74128914 C-5.88308313 43.33763167 -5.89103873 41.93388443 -5.89188385 40.53014946 C-5.80813069 30.00189896 -5.80813069 30.00189896 -10.5 20.9375 C-15.5619536 17.11016923 -21.40047274 17.12847179 -27.5 17.9375 C-32.45350841 20.27915852 -34.79940147 23.23755434 -37.5 27.9375 C-38.10699631 31.11641776 -38.10699631 31.11641776 -38.04589844 34.49365234 C-38.07547638 36.41496475 -38.07547638 36.41496475 -38.10565186 38.37509155 C-38.10731464 39.75787309 -38.1085457 41.14065521 -38.109375 42.5234375 C-38.12436819 43.9497769 -38.14109773 45.376099 -38.15948486 46.80239868 C-38.20304374 50.54075957 -38.22313164 54.27888631 -38.23822021 58.01745605 C-38.25783302 61.83860046 -38.29979817 65.65949352 -38.33984375 69.48046875 C-38.41502168 76.96610985 -38.46331968 84.45155312 -38.5 91.9375 C-46.09 91.9375 -53.68 91.9375 -61.5 91.9375 C-61.61361332 83.42628905 -61.70506406 74.91568186 -61.75906086 66.40391254 C-61.7849955 62.45021886 -61.82009134 58.49707724 -61.87719727 54.54370117 C-61.93210238 50.71811298 -61.96154134 46.89305085 -61.97438622 43.06709862 C-61.98352263 41.61802084 -62.00135948 40.16896714 -62.02865028 38.72011757 C-62.23675549 27.19853808 -60.69724676 16.64762605 -53.125 7.5 C-51.93984938 6.28936227 -50.73205574 5.10036902 -49.5 3.9375 C-48.95472656 3.38449219 -48.40945313 2.83148438 -47.84765625 2.26171875 C-35.00999815 -9.91140175 -14.3845846 -9.04273644 0 0 Z " fill="#333378" transform="translate(603.5,216.0625)"/>
<path d="M0 0 C2.26292448 1.66524177 4.27839233 3.39559445 6.2890625 5.35546875 C6.84980469 5.90074219 7.41054688 6.44601563 7.98828125 7.0078125 C19.62545042 19.4657392 19.2890625 33.57462551 19.2890625 50.35546875 C-3.1509375 50.35546875 -25.5909375 50.35546875 -48.7109375 50.35546875 C-46.73246177 59.25860953 -45.27403875 65.1589655 -37.78637695 70.31689453 C-34.01264304 72.2053152 -30.28973581 72.03833641 -26.1484375 71.91796875 C-25.32408203 71.92892578 -24.49972656 71.93988281 -23.65039062 71.95117188 C-18.08787371 71.88447503 -14.97912781 70.96286498 -10.7109375 67.35546875 C-10.3809375 66.69546875 -10.0509375 66.03546875 -9.7109375 65.35546875 C-0.8009375 65.35546875 8.1090625 65.35546875 17.2890625 65.35546875 C15.5400662 74.10045024 9.63084754 81.16557265 2.29296875 86.1484375 C-6.14092496 91.22850213 -13.9354881 93.73805688 -23.8359375 93.66796875 C-24.67125 93.6623291 -25.5065625 93.65668945 -26.3671875 93.65087891 C-39.86748787 93.38866153 -51.9277989 89.99878624 -62.0234375 80.66796875 C-74.61884282 67.08975973 -74.55148658 50.74628871 -73.90185547 33.21972656 C-73.10782591 21.30725244 -67.52070528 11.64267484 -58.8984375 3.54296875 C-42.61381804 -9.83819143 -17.90222351 -10.85999438 0 0 Z " fill="#323277" transform="translate(761.7109375,216.64453125)"/>
<path d="M0 0 C1.00740234 -0.01160156 2.01480469 -0.02320313 3.05273438 -0.03515625 C14.01147251 0.00712827 26.08513435 2.48523332 34.69140625 9.75 C40.8814495 16.5498087 41.5162716 24.38031384 41.4609375 33.0859375 C41.46380768 34.0941153 41.46667786 35.10229309 41.46963501 36.14102173 C41.47166738 38.26394211 41.46619572 40.38688156 41.45361328 42.50976562 C41.43758202 45.73350598 41.45347341 48.95598629 41.47265625 52.1796875 C41.47067302 54.2526069 41.46682769 56.32552552 41.4609375 58.3984375 C41.46701019 59.34979584 41.47308289 60.30115417 41.4793396 61.28134155 C41.37444867 71.4238139 38.88682242 80.66440194 32.0625 88.375 C29.22413282 90.70469923 26.25858886 92.57683748 23.0625 94.375 C22.093125 94.9525 21.12375 95.53 20.125 96.125 C11.39212751 99.68943775 2.3105603 99.71227531 -7 99.6875 C-8.82241211 99.71166992 -8.82241211 99.71166992 -10.68164062 99.73632812 C-21.76041374 99.74233288 -28.94005077 98.14848829 -37.0546875 90.4296875 C-43.11844522 83.81239173 -43.23343694 76.15001638 -43.15625 67.6015625 C-42.70895786 61.00400348 -40.15212165 55.47691042 -35.9375 50.375 C-25.79745688 41.87648025 -13.55877167 40.67442427 -0.86328125 38.9140625 C6.96963618 37.77813626 6.96963618 37.77813626 14.0625 34.375 C15.64618102 31.20763796 15.48306706 28.8596985 15.0625 25.375 C10.62421419 21.56010701 7.336165 20.84948681 1.5625 20.9375 C0.2940625 20.93878906 -0.974375 20.94007813 -2.28125 20.94140625 C-6.37627532 21.42703425 -8.60001715 21.93282505 -11.9375 24.375 C-13.9175 28.83 -13.9175 28.83 -15.9375 33.375 C-23.8575 33.375 -31.7775 33.375 -39.9375 33.375 C-38.92445778 22.23153554 -37.56243822 16.17323227 -29.9375 8.375 C-20.99843526 1.33573649 -11.1008489 -0.127352 0 0 Z " fill="#333378" transform="translate(682.9375,345.625)"/>
<path d="M0 0 C1.09505859 -0.01224609 2.19011719 -0.02449219 3.31835938 -0.03710938 C15.42470947 -0.05874073 26.57569193 1.51632063 35.89453125 9.9609375 C40.07794713 14.62274887 42.17317091 19.01967912 42.22802734 25.36987305 C42.24078705 26.37829758 42.25354675 27.38672211 42.26669312 28.42570496 C42.26891876 29.50596451 42.27114441 30.58622406 42.2734375 31.69921875 C42.2834227 33.38432304 42.2834227 33.38432304 42.29360962 35.10346985 C42.30372606 37.47968919 42.30842695 39.85593688 42.30810547 42.23217773 C42.31246348 45.84472305 42.34875393 49.4560313 42.38671875 53.06835938 C42.39259032 55.38280835 42.39655743 57.69726309 42.3984375 60.01171875 C42.41280853 61.08185715 42.42717957 62.15199554 42.44198608 63.25456238 C42.38222647 73.20131106 39.75871248 81.19391031 32.83203125 88.44140625 C22.01131945 98.4143097 8.86398008 99.55770146 -5.25 99.6875 C-7.03132324 99.71517456 -7.03132324 99.71517456 -8.84863281 99.7434082 C-17.77259391 99.68065966 -25.40650118 98.15941414 -33 93.3125 C-40.53087928 85.55341226 -41.5161525 79.04523469 -41.49414062 68.76293945 C-41.34531526 62.14441143 -40.66826176 57.22013724 -36.0625 52.1875 C-35.20785156 51.2284375 -35.20785156 51.2284375 -34.3359375 50.25 C-26.03258684 42.04915985 -14.88052387 40.55231847 -3.75 39.125 C6.89067626 38.25876932 6.89067626 38.25876932 15.9375 33.1875 C16.25268215 31.15741509 16.25268215 31.15741509 16.3125 28.8125 C16.36148438 28.02101562 16.41046875 27.22953125 16.4609375 26.4140625 C16.12214387 24.0079108 16.12214387 24.0079108 13.94140625 22.4296875 C10.02365423 20.80960279 6.69970841 20.67290501 2.5 20.6875 C1.76201172 20.65914062 1.02402344 20.63078125 0.26367188 20.6015625 C-3.64040543 20.58768134 -6.31282829 20.95014436 -9.47265625 23.34375 C-12.56953274 26.35867815 -12.56953274 26.35867815 -14.0625 32.1875 C-21.9825 32.1875 -29.9025 32.1875 -38.0625 32.1875 C-38.0625 22.31976706 -35.9412966 16.30303978 -29.265625 9.046875 C-20.37877541 1.54662605 -11.15010567 0.00640443 0 0 Z " fill="#323277" transform="translate(992.0625,209.8125)"/>
<path d="M0 0 C1.01578125 0.41378906 2.0315625 0.82757813 3.078125 1.25390625 C11.70331603 5.15223766 17.13467524 9.93312581 21.4375 18.375 C23 23 23 23 23 33 C14.42 33 5.84 33 -3 33 C-4.32 30.03 -5.64 27.06 -7 24 C-10.94681361 20.14945014 -14.23598214 18.85010414 -19.6875 18.6875 C-24.89647796 18.77102589 -28.88951519 19.70247774 -33 23 C-39.15910484 30.61461469 -39.26488388 37.63499258 -39.375 47.125 C-39.41238281 48.32382812 -39.44976563 49.52265625 -39.48828125 50.7578125 C-39.56350601 58.38058843 -38.75864309 63.88755279 -34 70 C-28.6751786 74.95332223 -25.16242581 75.30993896 -18.05078125 75.19921875 C-13.71714357 74.91622833 -11.61554237 74.48568538 -8 72 C-5.46259898 67.89034436 -4.16594922 63.66379687 -3 59 C5.91 59 14.82 59 24 59 C22.46087195 71.31302438 17.36447662 80.75104097 8 89 C-4.5989361 97.65055156 -19.23218004 98.84680567 -34.10644531 96.6953125 C-45.27197578 94.40973133 -53.38476901 88.07370315 -60 79 C-68.80791052 64.6543246 -69.9174626 48.77000405 -66.8125 32.5 C-63.66968493 19.92873972 -57.15847055 9.6283303 -46.0625 2.5625 C-44.39639525 1.66731739 -42.70897013 0.81035673 -41 0 C-39.93458984 -0.50853516 -39.93458984 -0.50853516 -38.84765625 -1.02734375 C-27.46096675 -5.36989493 -11.15220319 -4.58902771 0 0 Z " fill="#343478" transform="translate(919,213)"/>
<path d="M0 0 C5.14887258 3.30305033 7.03260735 6.42572084 9 12 C9.70125 11.2575 10.4025 10.515 11.125 9.75 C15.58020431 5.48850023 18.70807947 2.77002961 25 2.5625 C30.46469804 2.80045232 33.92240765 4.4839191 38.3125 7.6875 C40.76861892 11.05329259 40.72473971 13.87109567 41 18 C41.556875 17.6390625 42.11375 17.278125 42.6875 16.90625 C48.14086619 13.5900138 51.61823241 12.16304687 58 13 C62.10316615 14.44817629 65.38296174 16.51847973 68.08984375 20 C71.00921821 26.41510612 69.32179829 34.6150547 67 41 C67.804375 40.67 68.60875 40.34 69.4375 40 C74.93950236 38.45557828 79.73651491 38.24550497 85.1875 40.0625 C89.29238479 42.89030952 92.75507505 46.51015011 95 51 C95.82430653 57.33538448 95.27328253 62.0931397 91.46484375 67.3046875 C88.38538222 70.86865098 85.95906761 72.68500182 81.23046875 73.4453125 C74.69032974 73.82373564 70.4989692 73.03098303 65.5546875 68.640625 C61.507767 64.37000537 60.57134456 60.82771456 60 55 C57.40706789 55.48017261 55.96149721 56.02860207 53.8125 57.625 C49.70812029 59.63158563 46.36458507 59.02555824 42 58 C37.44348401 56.07613769 35.26779986 53.36761454 33 49 C32.75 45.125 32.75 45.125 33 42 C32.030625 42.495 31.06125 42.99 30.0625 43.5 C25.71036877 45.34128629 21.66770251 45.78220151 17 45 C12.00155118 42.31564786 8.14858584 39.30827091 6 34 C5.8046875 30.984375 5.8046875 30.984375 5.875 27.75 C5.89304688 26.67234375 5.91109375 25.5946875 5.9296875 24.484375 C5.95289063 23.66453125 5.97609375 22.8446875 6 22 C5.5153125 22.28875 5.030625 22.5775 4.53125 22.875 C-0.61481602 25.72512887 -4.1203539 26.93327716 -10 26 C-14.15000844 23.47248995 -17.14539763 20.52663612 -19 16 C-19.45599783 10.98402389 -19.12987123 7.99328398 -16 4 C-10.85255738 -0.63269836 -6.76584989 -1.84523179 0 0 Z " fill="#FBFBFC" transform="translate(161,341)"/>
<path d="M0 0 C0 8.25 0 16.5 0 25 C-7.625 25.8125 -7.625 25.8125 -9.99072266 26.04614258 C-15.22367932 26.65393077 -19.63752755 27.84515577 -23.64453125 31.5 C-27.21201709 36.08165406 -28.11990995 39.03396687 -28.20532227 44.7565918 C-28.22526749 45.93758957 -28.24521271 47.11858734 -28.26576233 48.33537292 C-28.29083107 50.24797661 -28.29083107 50.24797661 -28.31640625 52.19921875 C-28.33718735 53.50454056 -28.35796844 54.80986237 -28.37937927 56.15473938 C-28.43452273 59.62182353 -28.48396595 63.08896646 -28.53222656 66.55615234 C-28.5824981 70.0954306 -28.63810262 73.63462477 -28.69335938 77.17382812 C-28.80135046 84.11582089 -28.90043316 91.05786079 -29 98 C-37.58 98 -46.16 98 -55 98 C-55.10554478 90.71975573 -55.20562125 83.4423632 -55.25875092 76.16201782 C-55.28490024 72.77010578 -55.31969426 69.37884238 -55.37719727 65.98730469 C-55.9725278 28.08225925 -55.9725278 28.08225925 -42 13 C-30.03349532 1.4654991 -16.14403479 0 0 0 Z " fill="#353579" transform="translate(847,210)"/>
<path d="M0 0 C5.63126584 4.40393867 8.52464513 9.39939505 9.9375 16.375 C10.23218588 19.5054734 10.26255069 22.60730758 10.25 25.75 C10.26611328 26.54921875 10.28222656 27.3484375 10.29882812 28.171875 C10.30649445 37.64744724 7.49280588 45.46272202 0.9375 52.375 C-4.51751184 56.63257022 -11.46008712 56.09335544 -18.0625 55.375 C-23.6860669 53.78494993 -28.16202831 50.52505834 -31.0625 45.375 C-33.74690593 38.60977418 -34.61496028 32.11119802 -34.5625 24.875 C-34.55677979 23.95517334 -34.55105957 23.03534668 -34.54516602 22.08764648 C-34.33382503 14.07874809 -32.84788542 8.44766913 -27.3125 2.4921875 C-20.09426976 -4.19712069 -8.4352485 -5.36661159 0 0 Z " fill="#FCFCFD" transform="translate(892.0625,368.625)"/>
<path d="M0 0 C1.30453125 -0.02578125 2.6090625 -0.0515625 3.953125 -0.078125 C9.41343869 0.39375396 13.38221073 2.24484795 16.9375 6.4375 C17.40542969 6.96730469 17.87335938 7.49710938 18.35546875 8.04296875 C22.52829277 14.64701797 23.30412246 20.86179488 23.25 28.5 C23.24500488 29.42296875 23.24000977 30.3459375 23.23486328 31.296875 C23.02744705 39.4447569 21.62275136 46.57777986 16.29296875 53.0078125 C11.04107571 57.85784565 5.06561251 58.66467688 -1.7890625 58.5 C-8.0760946 57.86131737 -12.31207579 55.03936728 -16.25 50.25 C-22.4631098 39.74838007 -22.74652621 27.66676845 -20.63671875 15.80078125 C-18.53974836 9.1773109 -14.93344599 5.1619823 -9.25 1.25 C-6.21764223 -0.26617889 -3.37074987 0.03965588 0 0 Z " fill="#FCFCFD" transform="translate(1188.25,230.75)"/>
<path d="M0 0 C6.27232147 2.16680196 10.23742731 6.23241327 13.25 12.0625 C17.40223521 20.6562655 17.31349273 31.92791075 15.31640625 41.16015625 C13.1078872 47.08925097 9.58777075 52.62409848 4.2421875 56.1640625 C-0.86425171 58.06785691 -6.65519345 57.5034062 -12 57 C-15.625 55.3125 -15.625 55.3125 -18 53 C-18.70125 52.319375 -19.4025 51.63875 -20.125 50.9375 C-26.59247725 40.80511898 -27.54251142 29.62252784 -25.45703125 17.96484375 C-23.47444828 10.70267518 -20.20755314 5.41062986 -14 1 C-9.83641967 -1.08179017 -4.54565835 -0.32766869 0 0 Z " fill="#FBFBFC" transform="translate(1093,232)"/>
<path d="M0 0 C5.86874614 1.99118173 9.64407626 5.67555931 12.75 11 C16.45008557 19.88020536 16.63268839 32.99400451 13.8125 42.1875 C11.29042892 48.1700872 7.94625771 53.36163471 2.015625 56.33984375 C-3.49111928 58.14340922 -9.02928571 57.74018396 -14.3125 55.4375 C-20.59293669 51.80345699 -23.65336982 46.00608787 -25.49609375 39.140625 C-27.16406242 28.74491329 -27.76544752 16.36924874 -21.86328125 7.2421875 C-15.85504918 -0.60452568 -9.2687914 -0.85324309 0 0 Z " fill="#FBFBFC" transform="translate(593,367)"/>
<path d="M0 0 C6.94972413 3.23521641 10.60068583 8.99421295 13.23828125 16 C15.88850568 26.43780698 14.50797495 38.40626599 10.00390625 48.15625 C6.92805939 53.17977843 2.58928816 55.45907064 -3 57 C-8.68174246 57.93570292 -13.26204062 57.09126244 -18.27734375 54.26953125 C-23.09981558 50.71555541 -25.41956797 44.97418456 -26.53515625 39.2578125 C-28.13608155 28.03788225 -27.45471959 16.67118265 -22.1875 6.5 C-15.78021819 -0.82260778 -9.36417812 -1.10101382 0 0 Z " fill="#FBFBFC" transform="translate(784,367)"/>
<path d="M0 0 C0.8102475 17.46533507 0.8102475 17.46533507 -4.58203125 23.8828125 C-10.36218718 29.09628647 -15.65277937 30.40277775 -23.3359375 30.2578125 C-26.78870459 29.92367375 -29.15388693 28.97038597 -32 27 C-34.9744773 22.53828404 -34.73604659 18.22899767 -34 13 C-30.24331387 7.53572927 -24.29098867 5.3316743 -17.95703125 4.12109375 C-16.57694299 3.88476832 -15.1953733 3.65694187 -13.8125 3.4375 C-9.24424307 2.69932367 -4.34602438 0 0 0 Z " fill="#FBFBFC" transform="translate(699,397)"/>
<path d="M0 0 C0.84351714 17.78415301 0.84351714 17.78415301 -4 24 C-10.272086 29.32099099 -16.31707203 30.36029066 -24.3671875 30.28515625 C-27.97342387 29.89456982 -29.65187478 28.7268551 -32 26 C-34.2669052 22.97745974 -34.48654429 19.77104888 -34.375 16.02734375 C-33.69006601 12.32441936 -31.71028978 10.47962682 -29 8 C-23.69931843 5.3763629 -18.46235227 4.05162027 -12.6875 2.875 C-8.57741399 2.01832336 -4.04660028 0 0 0 Z " fill="#F9F9FB" transform="translate(1009,261)"/>
<path d="M0 0 C4.4363937 3.15666475 7.11033352 5.85590792 9 11 C9 12.98 9 14.96 9 17 C-4.86 17 -18.72 17 -33 17 C-31.95435203 9.68046423 -30.49196684 6.03576716 -25.0625 1.25 C-17.25618513 -4.48525174 -8.51437604 -4.74840202 0 0 Z " fill="#F8F8FA" transform="translate(746,233)"/>
<path d="M0 0 C0.66 0.33 1.32 0.66 2 1 C0.5459375 2.175625 0.5459375 2.175625 -0.9375 3.375 C-4.54032171 6.90152666 -4.77583609 10.13389556 -4.9921875 15.0234375 C-4.99476563 15.67570312 -4.99734375 16.32796875 -5 17 C-5.33 17 -5.66 17 -6 17 C-6.78734859 7.00942127 -6.78734859 7.00942127 -3.5625 2.875 C-2.716875 2.25625 -1.87125 1.6375 -1 1 C-0.67 0.67 -0.34 0.34 0 0 Z " fill="#DADAE5" transform="translate(671,404)"/>
<path d="M0 0 C0.66 0.33 1.32 0.66 2 1 C-0.97 3.97 -3.94 6.94 -7 10 C-7 7 -7 7 -4.625 4.4375 C-3.75875 3.633125 -2.8925 2.82875 -2 2 C-1.34 1.34 -0.68 0.68 0 0 Z " fill="#4B4B88" transform="translate(652,392)"/>
</svg>
