<?xml version="1.0" encoding="UTF-8"?>
<svg version="1.1" xmlns="http://www.w3.org/2000/svg" width="225" height="225">
<path d="M0 0 C74.25 0 148.5 0 225 0 C225 74.25 225 148.5 225 225 C150.75 225 76.5 225 0 225 C0 150.75 0 76.5 0 0 Z " fill="#FED101" transform="translate(0,0)"/>
<path d="M0 0 C2.42578125 1.4609375 2.42578125 1.4609375 4.3125 3.375 C6.52826392 5.55930276 8.38638684 7.25759123 11 9 C11.66 8.67 12.32 8.34 13 8 C20.6766234 7.12990926 26.87835688 7.24019596 33.125 12.0859375 C37.59932946 16.65348216 39.94448354 21.74386596 41 28 C41.37511719 27.566875 41.75023437 27.13375 42.13671875 26.6875 C46.29344105 22.16431603 46.29344105 22.16431603 49.6875 21.375 C52 22 52 22 53.61828613 23.49928284 C55.61642593 27.11564842 55.43432813 30.60881209 55.41992188 34.63647461 C55.42839142 35.5068486 55.43686096 36.3772226 55.44558716 37.27397156 C55.4689805 40.15024438 55.46997878 43.025983 55.46875 45.90234375 C55.47585006 47.90247309 55.48354883 49.90260039 55.49182129 51.90272522 C55.5052714 56.09495709 55.50683242 60.28700063 55.50097656 64.47924805 C55.49507941 69.85084587 55.52567043 75.22154019 55.56609344 80.59296322 C55.59194581 84.72368741 55.5948501 88.85419332 55.59120178 92.98498726 C55.59289528 94.96534051 55.60255981 96.9457036 55.62034607 98.92597771 C55.64248767 101.69597685 55.6328588 104.46413789 55.61523438 107.23413086 C55.62849762 108.05143677 55.64176086 108.86874268 55.65542603 109.71081543 C55.59652192 113.69615679 55.26264697 115.59892552 53.02861023 119.01040649 C48.88811282 121.7304352 45.78213484 121.6842473 40.92700195 121.59936523 C40.02240234 121.60330795 39.11780273 121.60725067 38.18579102 121.61131287 C35.20272033 121.61801345 32.22118751 121.5888864 29.23828125 121.55859375 C27.16513872 121.55434336 25.09199143 121.55201504 23.0188446 121.55152893 C18.67860281 121.54536651 14.33887771 121.52267613 9.9987793 121.48706055 C4.42651468 121.44170372 -1.1452831 121.4270301 -6.71771526 121.42332363 C-10.99586112 121.41890292 -15.27390835 121.40361442 -19.55201149 121.3844471 C-21.60738118 121.37554964 -23.66276144 121.36882707 -25.71814537 121.36428642 C-28.58400705 121.35527796 -31.44943937 121.33291929 -34.31518555 121.30639648 C-35.59704491 121.30539948 -35.59704491 121.30539948 -36.90480042 121.30438232 C-42.77082507 121.22917493 -42.77082507 121.22917493 -45 119 C-45.38789051 115.31504012 -44.7223033 113.21223234 -43 110 C-43.63091553 109.38479492 -44.26183105 108.76958984 -44.91186523 108.13574219 C-47.25306997 105.84571958 -49.58732657 103.5490502 -51.91723633 101.24755859 C-52.92626019 100.25360447 -53.93796245 99.26236165 -54.95239258 98.27392578 C-56.41162404 96.85115723 -57.86088722 95.41885738 -59.30859375 93.984375 C-60.18314209 93.12553711 -61.05769043 92.26669922 -61.95874023 91.38183594 C-63.90083216 89.11571361 -64.80873228 87.95189849 -65 85 C-63.56640625 83.078125 -63.56640625 83.078125 -61.5625 81.25 C-60.90378906 80.63640625 -60.24507812 80.0228125 -59.56640625 79.390625 C-58.79103516 78.70226562 -58.79103516 78.70226562 -58 78 C-58.59748047 77.31164062 -58.59748047 77.31164062 -59.20703125 76.609375 C-60.30013696 75.34339369 -61.38581397 74.07096856 -62.46484375 72.79296875 C-63.56057809 71.51321795 -64.70338601 70.27316779 -65.875 69.0625 C-67.64831621 65.81142029 -67.61527304 62.56797177 -67 59 C-65.28875254 56.49352129 -63.84493007 54.74567452 -61.7109375 52.67578125 C-61.14832718 52.09915237 -60.58571686 51.5225235 -60.00605774 50.92842102 C-58.14860416 49.03587739 -56.26355395 47.17397163 -54.375 45.3125 C-53.07019795 44.00230595 -51.76658517 42.69092653 -50.46411133 41.37841797 C-47.73286842 38.63539467 -44.9877168 35.90732603 -42.23193359 33.18896484 C-38.70497343 29.70758605 -35.21515521 26.19151612 -31.73498535 22.66343689 C-29.05045767 19.94996567 -26.34712179 17.25588135 -23.63775635 14.56723022 C-22.3433331 13.27813407 -21.05479993 11.98309486 -19.7723999 10.68203735 C-17.97502551 8.86428291 -16.15387751 7.07424002 -14.32421875 5.2890625 C-13.5398217 4.48037468 -13.5398217 4.48037468 -12.73957825 3.65534973 C-8.43430047 -0.4585311 -5.66025535 -0.63570267 0 0 Z " fill="#F7F1EF" transform="translate(119,52)"/>
<path d="M0 0 C0.06943698 11.55230802 0.12277921 23.10456659 0.15543652 34.6570406 C0.17110849 40.02102835 0.19237475 45.38487358 0.22631836 50.7487793 C0.25885712 55.92292372 0.27684147 61.09693084 0.28463173 66.27116966 C0.2901851 68.24759267 0.30102917 70.22400796 0.31719017 72.2003727 C0.33889156 74.96358241 0.34196999 77.72622106 0.34057617 80.48950195 C0.351362 81.31093185 0.36214783 82.13236176 0.3732605 82.97868347 C0.34277507 88.5448976 0.34277507 88.5448976 -1.28882599 90.71117401 C-4.27013831 92.9566457 -7.92393853 92.38766968 -11.51049805 92.34057617 C-12.81325684 92.34123329 -12.81325684 92.34123329 -14.14233398 92.34190369 C-17.01569019 92.33981212 -19.88846436 92.31646374 -22.76171875 92.29296875 C-24.75282981 92.28737411 -26.74394499 92.28310339 -28.73506165 92.28010559 C-33.9778278 92.26864648 -39.22034497 92.23917005 -44.4630127 92.20599365 C-49.81189607 92.17531579 -55.16081965 92.16160514 -60.50976562 92.14648438 C-71.00661987 92.11430144 -81.50328923 92.06309214 -92 92 C-90.96026613 86.58179948 -87.04058084 84.1070025 -83.0546875 80.53515625 C-80.7032611 78.19508517 -80.7032611 78.19508517 -81.0703125 75.30859375 C-81.88279219 72.85602442 -81.88279219 72.85602442 -84 71 C-83.8125 69 -83.8125 69 -83 67 C-81.515 66.01 -81.515 66.01 -80 65 C-79.34 66.65 -78.68 68.3 -78 70 C-75.80085503 70.59197613 -75.80085503 70.59197613 -73 70 C-70.13492987 68.04733557 -67.88503183 65.91839266 -66 63 C-66.31730524 59.36060068 -66.31730524 59.36060068 -67 56 C-64.875 53.5 -64.875 53.5 -62 52 C-60.80503906 52.29970703 -60.80503906 52.29970703 -59.5859375 52.60546875 C-56.95512429 53.2848832 -56.95512429 53.2848832 -54.796875 51.70703125 C-54.12140625 51.08183594 -53.4459375 50.45664063 -52.75 49.8125 C-52.06421875 49.20019531 -51.3784375 48.58789062 -50.671875 47.95703125 C-48.86137485 46.14745565 -48.86137485 46.14745565 -48.53515625 43.91015625 C-48 42 -48 42 -46.07421875 40.7265625 C-45.28660156 40.36304688 -44.49898437 39.99953125 -43.6875 39.625 C-39.35684296 37.35329242 -37.20702285 35.49893119 -35 31 C-34.57447895 29.25213189 -34.15836932 27.5019548 -33.75 25.75 C-33.03125 23.1328125 -33.03125 23.1328125 -32 21 C-28.25 19.625 -28.25 19.625 -26.11328125 19.328125 C-19.59133149 18.31547476 -15.76417903 13.90553473 -11.765625 9.10546875 C-9.99463143 6.99359809 -8.16426719 4.98263387 -6.25 3 C-5.69828125 2.4225 -5.1465625 1.845 -4.578125 1.25 C-3 0 -3 0 0 0 Z " fill="#C90688" transform="translate(170,78)"/>
<path d="M0 0 C3.07073326 1.02749799 4.46915573 2.10589979 6.63198853 4.48501587 C7.52530884 5.44601196 7.52530884 5.44601196 8.43667603 6.42642212 C9.09023071 7.16698853 9.09023071 7.16698853 9.75698853 7.92251587 C8.69328092 10.10953538 7.63571955 12.09936645 6.25698853 14.11001587 C4.23842965 17.89481376 3.53334516 21.73019004 2.75698853 25.92251587 C2.0325354 26.08107056 1.30808228 26.23962524 0.56167603 26.40298462 C-6.95383639 28.21672828 -11.0784478 30.10321488 -16.05551147 36.11001587 C-18.39007615 41.639248 -18.98080998 48.12985419 -17.24301147 53.92251587 C-17.83469116 53.69435181 -18.42637085 53.46618774 -19.03598022 53.23110962 C-25.09893034 50.80664173 -25.09893034 50.80664173 -31.24301147 51.92251587 C-33.75317178 53.62730858 -35.67897362 55.30275247 -37.24301147 57.92251587 C-37.45569172 60.88408835 -36.9515853 62.98699574 -36.24301147 65.92251587 C-36.8952771 66.02048462 -37.54754272 66.11845337 -38.21957397 66.21939087 C-43.87732256 67.18738325 -47.72723186 68.3574267 -52.24301147 71.92251587 C-53.75791494 70.54287164 -55.2545176 69.1431127 -56.74301147 67.73501587 C-57.57832397 66.95771118 -58.41363647 66.18040649 -59.27426147 65.37954712 C-61.24301147 62.92251587 -61.24301147 62.92251587 -61.69287109 60.63818359 C-61.04501431 56.72726629 -58.73302191 54.69820721 -56.01400757 52.01480103 C-55.45793823 51.44675751 -54.9018689 50.87871399 -54.32894897 50.29345703 C-52.48747652 48.4197869 -50.62807216 46.56521386 -48.76644897 44.71157837 C-47.47985796 43.41654092 -46.19386535 42.12090871 -44.90844727 40.82470703 C-42.21145992 38.11132036 -39.50511372 35.40770168 -36.79232788 32.71011353 C-33.31476576 29.24984765 -29.86519289 25.76310381 -26.42258263 22.26810646 C-23.77367002 19.58613914 -21.10872854 16.92056551 -18.43883133 14.25950241 C-17.15995633 12.98026705 -15.88655059 11.6955399 -14.61875534 10.40532303 C-12.84488023 8.6042704 -11.05020628 6.82689521 -9.24838257 5.05386353 C-8.72761139 4.51578064 -8.20684021 3.97769775 -7.67028809 3.42330933 C-5.00013422 0.84380783 -3.78128483 -0.09034491 0 0 Z " fill="#CA0487" transform="translate(116.24301147460938,55.077484130859375)"/>
<path d="M0 0 C4.5425708 2.33617927 7.99749306 5.62721975 10.02734375 10.3515625 C10.92837817 15.26773277 10.68666141 19.73503496 8.40234375 24.2265625 C5.70406598 27.77692798 4.11725028 29.52571137 0.02734375 31.3515625 C-5.55281005 32.095072 -10.29476735 32.10062005 -15.47265625 29.7890625 C-20.08728164 25.28980274 -22.1842111 21.68292998 -22.47265625 15.2890625 C-22.26700926 10.61591194 -21.1161356 7.91983635 -17.97265625 4.3515625 C-12.4321304 -0.52937694 -7.29519264 -2.39802372 0 0 Z " fill="#314A8B" transform="translate(144.97265625,63.6484375)"/>
<path d="M0 0 C1.32 0 2.64 0 4 0 C6.475 9.405 6.475 9.405 9 19 C9.66 17.02 10.32 15.04 11 13 C11.66 13 12.32 13 13 13 C13.05437607 14.58294782 13.09296271 16.16644256 13.125 17.75 C13.14820313 18.63171875 13.17140625 19.5134375 13.1953125 20.421875 C12.99139502 23.1135858 12.36551721 24.69904974 11 27 C9.68 26.67 8.36 26.34 7 26 C6.01 28.64 5.02 31.28 4 34 C0 33 0 33 -2 32 C-1.938125 32.886875 -1.87625 33.77375 -1.8125 34.6875 C-2.02335523 38.41260904 -2.68350381 40.10437976 -5 43 C-7.969245 44.29904469 -8.84150454 44.05283182 -12 43 C-12.33 45.64 -12.66 48.28 -13 51 C-14.32 51 -15.64 51 -17 51 C-17.99 53.31 -18.98 55.62 -20 58 C-22.3125 57.875 -22.3125 57.875 -25 57 C-29.0305925 51.85751991 -28.69379833 45.24418493 -28 39 C-27.34 38.01 -26.68 37.02 -26 36 C-24.68 36 -23.36 36 -22 36 C-22 35.01 -22 34.02 -22 33 C-20.68 33.33 -19.36 33.66 -18 34 C-17.34 37.3 -16.68 40.6 -16 44 C-15.34 44 -14.68 44 -14 44 C-14.165 43.071875 -14.33 42.14375 -14.5 41.1875 C-16.35601266 28.03401899 -16.35601266 28.03401899 -13 23 C-10.4375 22.75 -10.4375 22.75 -8 23 C-7 24 -7 24 -6.9375 26.5625 C-6.958125 27.366875 -6.97875 28.17125 -7 29 C-7.99 29.33 -8.98 29.66 -10 30 C-10 28.68 -10 27.36 -10 26 C-10.66 26 -11.32 26 -12 26 C-11.71640113 27.4391134 -11.42278601 28.87625518 -11.125 30.3125 C-10.96257812 31.11300781 -10.80015625 31.91351563 -10.6328125 32.73828125 C-10.05521001 35.25301118 -10.05521001 35.25301118 -8 38 C-7.34 38 -6.68 38 -6 38 C-1.93757878 31.90636818 -4.2115444 22.87082738 -5 16 C-3.68 16 -2.36 16 -1 16 C-0.01 19.3 0.98 22.6 2 26 C2.27574313 17.17621971 1.2113078 8.71709003 0 0 Z " fill="#FBF1F7" transform="translate(153,99)"/>
<path d="M0 0 C0 2.64 0 5.28 0 8 C-0.969375 8.474375 -1.93875 8.94875 -2.9375 9.4375 C-5.80477437 10.70193947 -5.80477437 10.70193947 -7 12 C-7.55235473 16.05060132 -7.30553185 17.57764715 -4.875 20.9375 C-2.15785858 23.32129017 -2.15785858 23.32129017 1.1875 22.9375 C4.09782797 22.20031442 4.09782797 22.20031442 6 20 C5.67 19.01 5.34 18.02 5 17 C3.68 17.99 2.36 18.98 1 20 C-1.0625 18.25 -1.0625 18.25 -3 16 C-2.70314236 12.37833678 -1.00739151 10.67971561 1.5625 8.25 C2.52349609 7.32960938 2.52349609 7.32960938 3.50390625 6.390625 C3.99761719 5.93171875 4.49132812 5.4728125 5 5 C9.56607467 7.08561282 13.14552539 9.83246708 16 14 C16.7808583 18.31133466 15.28143821 21.45797085 13.3125 25.25 C9.97613272 29.2175719 7.46795155 31.56550149 2.2265625 32.48828125 C-3.43202294 32.85174203 -7.19072976 32.51851418 -11.625 28.8125 C-15.68223934 24.59532799 -17.04544826 21.36842619 -17.375 15.5625 C-17.21731392 9.61970589 -14.35462479 6.12454605 -10.1875 2.125 C-6.45199463 -0.36533691 -4.39988547 -0.43998855 0 0 Z " fill="#2F488A" transform="translate(118,85)"/>
<path d="M0 0 C3.33866414 2.9834871 4.74317221 5.16908655 6.0625 9.4375 C5.97933993 14.177624 4.60104144 16.0612801 2 20 C1.3197633 21.32646156 0.64507739 22.65608877 0 24 C1.32 25.32 2.64 26.64 4 28 C2.70700306 30.88437779 1.34058637 32.87219421 -1 35 C-4.56764285 33.48623919 -6.83706287 31.39486871 -9.546875 28.6484375 C-10.39121094 27.79765625 -11.23554687 26.946875 -12.10546875 26.0703125 C-13.41451172 24.73613281 -13.41451172 24.73613281 -14.75 23.375 C-15.63816406 22.4778125 -16.52632813 21.580625 -17.44140625 20.65625 C-19.63216969 18.44192996 -21.81812763 16.22307565 -24 14 C-20.77331595 10.1298756 -17.59202082 6.40735637 -13.75 3.125 C-13.08484375 2.55007812 -12.4196875 1.97515625 -11.734375 1.3828125 C-7.98490564 -1.60662929 -4.45691881 -1.37464354 0 0 Z " fill="#2F488A" transform="translate(82,125)"/>
<path d="M0 0 C4.02141141 1.60272014 8.04202402 3.20743491 12.0625 4.8125 C13.19623047 5.26431641 14.32996094 5.71613281 15.49804688 6.18164062 C21.02819672 8.39047598 26.54289232 10.61598053 32 13 C30.22098076 15.61313816 28.44543171 17.97915973 26 20 C23.66117862 19.70764733 21.32716 19.37400786 19 19 C16.28833465 20.49024712 14.49024712 22.28833465 13 25 C13.185625 26.155 13.37125 27.31 13.5625 28.5 C13.706875 29.655 13.85125 30.81 14 32 C12.51147461 33.65429688 12.51147461 33.65429688 10.52734375 35.21875 C9.8737085 35.74404297 9.22007324 36.26933594 8.54663086 36.81054688 C8.03624268 37.20306641 7.52585449 37.59558594 7 38 C5.25579063 33.96854033 3.52911592 29.93014961 1.81811523 25.88452148 C1.23398351 24.51010342 0.64515715 23.13767055 0.05151367 21.76733398 C-0.80239305 19.79397201 -1.63900357 17.81401983 -2.47265625 15.83203125 C-2.98062744 14.64327393 -3.48859863 13.4545166 -4.01196289 12.22973633 C-5.05871211 8.80807942 -5.29229515 7.30631578 -4 4 C-1.9375 1.6875 -1.9375 1.6875 0 0 Z " fill="#2E488A" transform="translate(87,108)"/>
<path d="M0 0 C0.59425781 0.21785156 1.18851563 0.43570313 1.80078125 0.66015625 C1.15109375 1.44519531 0.50140625 2.23023438 -0.16796875 3.0390625 C-1.0126074 4.09955325 -1.85630819 5.16079144 -2.69921875 6.22265625 C-3.12847656 6.73634766 -3.55773437 7.25003906 -4 7.77929688 C-7.16322685 11.82119785 -7.65818974 14.60510074 -7.19921875 19.66015625 C-4.77124564 19.66015625 -2.5701487 19.1592994 -0.19921875 18.66015625 C-1.40303323 21.15377196 -2.65350597 23.34158708 -4.19921875 25.66015625 C-3.87042761 30.6742211 -2.97126305 34.93470478 -1.19921875 39.66015625 C-3.95379593 39.28021457 -5.01942449 38.85279295 -6.94921875 36.78515625 C-8.19921875 34.66015625 -8.19921875 34.66015625 -8.19921875 31.66015625 C-9.18921875 31.66015625 -10.17921875 31.66015625 -11.19921875 31.66015625 C-11.18761719 31.03367188 -11.17601563 30.4071875 -11.1640625 29.76171875 C-11.15503906 28.94445312 -11.14601563 28.1271875 -11.13671875 27.28515625 C-11.12511719 26.47304687 -11.11351563 25.6609375 -11.1015625 24.82421875 C-11.05455541 22.61078483 -11.05455541 22.61078483 -12.19921875 20.66015625 C-12.79734375 21.48515625 -13.39546875 22.31015625 -14.01171875 23.16015625 C-15.09453125 24.39765625 -15.09453125 24.39765625 -16.19921875 25.66015625 C-17.18921875 25.66015625 -18.17921875 25.66015625 -19.19921875 25.66015625 C-18.65521346 21.00978849 -16.59859138 17.61953507 -14.07421875 13.78515625 C-13.67114502 13.16890381 -13.26807129 12.55265137 -12.8527832 11.91772461 C-4.42461181 -0.6837322 -4.42461181 -0.6837322 0 0 Z " fill="#FBF0F6" transform="translate(124.19921875,128.33984375)"/>
<path d="M0 0 C1.32 0.33 2.64 0.66 4 1 C4.66 4.3 5.32 7.6 6 11 C7.32 10.34 8.64 9.68 10 9 C9.67 11.97 9.34 14.94 9 18 C7.68 18 6.36 18 5 18 C4.01 20.31 3.02 22.62 2 25 C-0.3125 24.875 -0.3125 24.875 -3 24 C-7.0305925 18.85751991 -6.69379833 12.24418493 -6 6 C-5.34 5.01 -4.68 4.02 -4 3 C-2.68 3 -1.36 3 0 3 C0 2.01 0 1.02 0 0 Z " fill="#F9E9F3" transform="translate(131,132)"/>
<path d="M0 0 C1.32 0 2.64 0 4 0 C3.67 3.63 3.34 7.26 3 11 C1.68 11.33 0.36 11.66 -1 12 C-2.14814997 14.29629994 -2.30769809 16.07698086 -2.5625 18.625 C-2.64628906 19.44226563 -2.73007813 20.25953125 -2.81640625 21.1015625 C-2.87699219 21.72804687 -2.93757813 22.35453125 -3 23 C-4.423125 23.4640625 -4.423125 23.4640625 -5.875 23.9375 C-8.86080408 24.87394742 -8.86080408 24.87394742 -11 26 C-12.56671961 22.86656079 -12.31543535 20.4662044 -12 17 C-10.56468897 14.58788008 -9.2691396 12.67962352 -7.5 10.5625 C-7.07074219 10.02173828 -6.64148438 9.48097656 -6.19921875 8.92382812 C-5.14784571 7.60377087 -4.07594844 6.30010437 -3 5 C-3.33 4.34 -3.66 3.68 -4 3 C-3.01 3 -2.02 3 -1 3 C-0.67 2.01 -0.34 1.02 0 0 Z " fill="#CB138C" transform="translate(128,124)"/>
<path d="M0 0 C1.32 0 2.64 0 4 0 C5.65 6.27 7.3 12.54 9 19 C9.66 17.02 10.32 15.04 11 13 C11.66 13 12.32 13 13 13 C13.05437607 14.58294782 13.09296271 16.16644256 13.125 17.75 C13.14820313 18.63171875 13.17140625 19.5134375 13.1953125 20.421875 C12.99139502 23.1135858 12.36551721 24.69904974 11 27 C9.68 26.67 8.36 26.34 7 26 C6.34 27.32 5.68 28.64 5 30 C3.05062006 26.66423794 2.56065396 23.74424579 2.1484375 19.921875 C2.01953125 18.76171875 1.890625 17.6015625 1.7578125 16.40625 C1.63148438 15.1996875 1.50515625 13.993125 1.375 12.75 C1.2409375 11.52796875 1.106875 10.3059375 0.96875 9.046875 C0.63898972 6.03192384 0.3163462 3.01638324 0 0 Z " fill="#F8E4F0" transform="translate(153,99)"/>
<path d="M0 0 C3.40507055 2.51679127 4.82464689 3.90404303 5.5 8.125 C5 11 5 11 3.9375 12.875 C0.84902396 14.66830867 -1.51143969 14.42841969 -5 14 C-7.4375 12.4375 -7.4375 12.4375 -9 10 C-9.42841969 6.51143969 -9.66830867 4.15097604 -7.875 1.0625 C-5.01486651 -0.55824231 -3.23391331 -0.51742613 0 0 Z " fill="#F9FAFB" transform="translate(141,72)"/>
<path d="M0 0 C0.99 0 1.98 0 3 0 C3.99 4.62 4.98 9.24 6 14 C6.99 13.67 7.98 13.34 9 13 C9 14.65 9 16.3 9 18 C7.35 18.33 5.7 18.66 4 19 C0.47045567 14.54970497 -0.12313116 11.45119785 -0.0625 5.8125 C-0.05347656 4.72582031 -0.04445313 3.63914063 -0.03515625 2.51953125 C-0.02355469 1.68808594 -0.01195313 0.85664063 0 0 Z " fill="#FBF1F7" transform="translate(125,138)"/>
<path d="M0 0 C1.32 0.33 2.64 0.66 4 1 C4.27429625 6.39449293 4.36055646 9.51925805 1 14 C-1.7385669 12.9958588 -2.81209575 12.33822766 -4.25 9.75 C-5.07592799 6.72159739 -5.14534994 4.1250237 -5 1 C-4.34 1 -3.68 1 -3 1 C-3 2.32 -3 3.64 -3 5 C-2.34 4.67 -1.68 4.34 -1 4 C-0.34786708 1.97536745 -0.34786708 1.97536745 0 0 Z " fill="#CC1A8F" transform="translate(146,124)"/>
<path d="M0 0 C1.32 0.66 2.64 1.32 4 2 C3.75 4.375 3.75 4.375 3 7 C0.9375 8.3125 0.9375 8.3125 -1 9 C-2.32 7.35 -3.64 5.7 -5 4 C-3.35 2.68 -1.7 1.36 0 0 Z " fill="#EAECF2" transform="translate(75,133)"/>
<path d="M0 0 C0.99 0.33 1.98 0.66 3 1 C3 5.29 3 9.58 3 14 C-0.24838604 10.75161396 -0.4233799 10.18387284 -0.75 5.875 C-0.82734375 4.98554688 -0.9046875 4.09609375 -0.984375 3.1796875 C-0.99210938 2.10074219 -0.99210938 2.10074219 -1 1 C-0.67 0.67 -0.34 0.34 0 0 Z " fill="#CE2793" transform="translate(129,137)"/>
<path d="M0 0 C1.66611905 -0.042721 3.33382885 -0.04063832 5 0 C6 1 6 1 6.0625 3.5625 C6.041875 4.366875 6.02125 5.17125 6 6 C5.01 6.33 4.02 6.66 3 7 C3 5.68 3 4.36 3 3 C1.68 3 0.36 3 -1 3 C-0.67 2.01 -0.34 1.02 0 0 Z " fill="#F8E3F0" transform="translate(140,122)"/>
<path d="M0 0 C1.32 0 2.64 0 4 0 C3.125 5.75 3.125 5.75 2 8 C1.01 7.67 0.02 7.34 -1 7 C-0.67 4.69 -0.34 2.38 0 0 Z " fill="#F7E1EF" transform="translate(128,124)"/>
<path d="M0 0 C1.98 0.495 1.98 0.495 4 1 C3.67 2.65 3.34 4.3 3 6 C1.68 5.67 0.36 5.34 -1 5 C-0.67 3.35 -0.34 1.7 0 0 Z " fill="#F6DEED" transform="translate(147,105)"/>
<path d="M0 0 C2 2 2 2 2.125 5.625 C2.08375 6.73875 2.0425 7.8525 2 9 C1.34 9 0.68 9 0 9 C-1.125 6.1875 -1.125 6.1875 -2 3 C-1.34 2.01 -0.68 1.02 0 0 Z " fill="#CB158D" transform="translate(137,134)"/>
<path d="M0 0 C1.98 0.66 3.96 1.32 6 2 C5.34 3.32 4.68 4.64 4 6 C3.34 6 2.68 6 2 6 C1.34 4.02 0.68 2.04 0 0 Z " fill="#D5D9E5" transform="translate(93,120)"/>
</svg>
