<?xml version="1.0" encoding="UTF-8"?>
<svg version="1.1" xmlns="http://www.w3.org/2000/svg" width="600" height="300">
<path d="M0 0 C198 0 396 0 600 0 C600 99 600 198 600 300 C402 300 204 300 0 300 C0 201 0 102 0 0 Z " fill="#FEFEFE" transform="translate(0,0)"/>
<path d="M0 0 C6.62065979 4.57546587 6.62065979 4.57546587 7.44621277 8.76850891 C7.63569769 11.83766444 7.66536224 14.87035593 7.63671875 17.9453125 C7.64150238 19.07345871 7.64628601 20.20160492 7.6512146 21.36393738 C7.65461374 23.74857986 7.64541052 26.13326894 7.62451172 28.51782227 C7.59782406 32.15292446 7.62422353 35.78491754 7.65625 39.41992188 C7.65294445 41.74089219 7.64653521 44.06186059 7.63671875 46.3828125 C7.6468399 47.46327347 7.65696106 48.54373444 7.66738892 49.65693665 C7.53509296 58.25520167 5.16023095 63.02744726 -0.71484375 69.17578125 C-10.18014136 75.42644948 -21.9601672 75.77148934 -32.9140625 73.859375 C-36.54842886 72.808112 -38.72867107 71.62553044 -41.58984375 69.11328125 C-43.43987698 65.57408725 -43.52934173 63.30755106 -43.02734375 59.36328125 C-41.5 57.1484375 -41.5 57.1484375 -40.02734375 55.36328125 C-39.4446875 55.57984375 -38.86203125 55.79640625 -38.26171875 56.01953125 C-31.15256221 58.43396177 -23.28474659 60.06997546 -15.93359375 57.68359375 C-14.1297797 56.83412228 -14.1297797 56.83412228 -12.02734375 55.36328125 C-12.02734375 53.38328125 -12.02734375 51.40328125 -12.02734375 49.36328125 C-12.83945312 49.60304688 -12.83945312 49.60304688 -13.66796875 49.84765625 C-20.25631742 51.28749404 -27.9786913 51.28945692 -34.21484375 48.53515625 C-40.03751246 44.77049976 -44.02438428 38.95112088 -46.02734375 32.36328125 C-47.44187661 23.46390234 -47.37741208 13.83471473 -41.94921875 6.3515625 C-31.44395021 -4.51669296 -13.61934649 -6.18598355 0 0 Z " fill="#221550" transform="translate(440.02734375,120.63671875)"/>
<path d="M0 0 C0.93328125 -0.01546875 1.8665625 -0.0309375 2.828125 -0.046875 C11.84717468 0.00351075 18.90835315 2.81074352 25.5625 8.92578125 C31.53864771 15.47031257 31.46749125 24.1794934 31.41015625 32.55859375 C30.66390585 39.7297047 27.55326803 46.49977586 22.25 51.5 C13.93967829 56.61404413 6.79182484 58.40913442 -3 57.5 C-4.485 57.005 -4.485 57.005 -6 56.5 C-6 62.77 -6 69.04 -6 75.5 C-9.03306113 76.51102038 -11.25940239 76.6982535 -14.4375 76.75 C-15.85869141 76.78867188 -15.85869141 76.78867188 -17.30859375 76.828125 C-20.44650763 76.44556366 -21.75297736 75.69071912 -24 73.5 C-25.05099827 70.34700518 -25.15195742 68.05905564 -25.19287109 64.74682617 C-25.21696548 62.97434761 -25.21696548 62.97434761 -25.24154663 61.1660614 C-25.28600332 55.76687151 -25.32749036 50.36782632 -25.35009766 44.96850586 C-25.36343297 42.11954613 -25.39128036 39.27130337 -25.43212891 36.42260742 C-25.49099556 32.31677203 -25.50876457 28.21170419 -25.5234375 24.10546875 C-25.54610687 22.83342087 -25.56877625 21.56137299 -25.59213257 20.2507782 C-25.56856382 10.40074684 -25.56856382 10.40074684 -22.72509766 6.79614258 C-15.73382448 0.90535919 -8.96613278 -0.14860994 0 0 Z " fill="#231751" transform="translate(199,117.5)"/>
<path d="M0 0 C0.92433838 0.00572021 1.84867676 0.01144043 2.80102539 0.01733398 C11.70132804 0.2510348 17.78030452 2.2937807 24 8.8125 C30.36598977 17.28846372 30.48178547 26.31555644 29.5625 36.5 C28.7162027 39.91387725 27.50132886 42.5766568 25.5625 45.5 C25.13839844 46.14453125 24.71429688 46.7890625 24.27734375 47.453125 C19.91080916 53.24273632 14.25471672 55.26926109 7.5625 57.5 C5.56508264 57.6192902 3.56343876 57.67523935 1.5625 57.6875 C0.510625 57.70167969 -0.54125 57.71585938 -1.625 57.73046875 C-4.4375 57.5 -4.4375 57.5 -7.4375 55.5 C-7.4375 62.1 -7.4375 68.7 -7.4375 75.5 C-10.34836669 76.4702889 -12.33973685 76.66467847 -15.375 76.6875 C-16.22964844 76.70167969 -17.08429688 76.71585937 -17.96484375 76.73046875 C-20.61374285 76.48357294 -22.20385385 75.92413681 -24.4375 74.5 C-25.80588258 71.76323483 -25.60271511 69.5406878 -25.64624023 66.47729492 C-25.66553085 65.21225632 -25.68482147 63.94721771 -25.70469666 62.6438446 C-25.71950289 61.25606303 -25.73327646 59.86827012 -25.74609375 58.48046875 C-25.75266558 57.78245966 -25.7592374 57.08445057 -25.76600838 56.36528969 C-25.79859904 52.6702235 -25.82304999 48.97518612 -25.8425293 45.2800293 C-25.86034125 42.22328709 -25.89515655 39.1674677 -25.94506836 36.11108398 C-26.00528531 32.41931264 -26.03600623 28.72839667 -26.04570198 25.03615761 C-26.05425597 23.6306901 -26.0730735 22.22524542 -26.1024456 20.82005882 C-26.31861404 9.88941162 -26.31861404 9.88941162 -24.20805359 6.56130981 C-17.50116813 0.69785909 -8.50799581 -0.06109732 0 0 Z " fill="#21144F" transform="translate(296.4375,117.5)"/>
<path d="M0 0 C7.06486864 4.38169553 11.00105496 9.98368129 13.1875 17.9375 C13.60054804 20.95238341 13.65352962 23.89779867 13.625 26.9375 C13.6549707 28.07058594 13.6549707 28.07058594 13.68554688 29.2265625 C13.67976789 35.95329987 11.55238213 40.82291164 7.51171875 46.14453125 C0.61654363 52.90805625 -6.4380276 55.02914858 -16.0625 55.25 C-25.31917793 55.14564061 -31.04132409 51.993171 -37.98828125 46.109375 C-42.96987662 40.17839636 -44.45191214 34.57108156 -44.25 26.9375 C-44.25708984 26.18210938 -44.26417969 25.42671875 -44.27148438 24.6484375 C-44.18495494 16.90072506 -42.01955765 10.21987231 -36.6328125 4.546875 C-27.1382585 -3.84745171 -11.54325106 -5.27241058 0 0 Z " fill="#221550" transform="translate(500.8125,120.0625)"/>
<path d="M0 0 C1.01642578 -0.020625 2.03285156 -0.04125 3.08007812 -0.0625 C10.61558433 -0.10141804 16.05156797 0.94215534 22.5625 4.9375 C29.51009995 12.07808883 29.44370369 19.88766596 29.33398438 29.25073242 C29.31243951 31.44365702 29.33390263 33.63334384 29.359375 35.82617188 C29.35673328 37.231778 29.35161151 38.63738213 29.34375 40.04296875 C29.33923828 41.3064917 29.33472656 42.57001465 29.33007812 43.87182617 C28.72527938 47.81927908 27.5959526 49.44165525 24.8125 52.25 C14.61564121 58.45079251 2.11619395 58.99490479 -9.34765625 56.5859375 C-15.06139688 54.6037952 -18.96638674 51.37287754 -22.1875 46.25 C-24.04830151 40.66759548 -24.12575348 35.19868031 -21.5625 29.875 C-13.3444572 20.79190007 -1.72866365 21.11331539 9.8125 20.25 C8.5035428 17.12802522 8.5035428 17.12802522 5.8125 15.25 C3.23886176 15.15090181 0.69815909 15.11107849 -1.875 15.125 C-2.91817383 15.11919922 -2.91817383 15.11919922 -3.98242188 15.11328125 C-8.48201076 15.12168384 -12.74781125 15.51684039 -17.1875 16.25 C-18.75 14.6875 -18.75 14.6875 -20.1875 12.25 C-20.1875 7.91230981 -19.91433029 5.97683029 -16.8125 2.875 C-11.39999016 -0.47560133 -6.17501027 0.03074056 0 0 Z " fill="#241852" transform="translate(356.1875,117.75)"/>
<path d="M0 0 C4.39093783 3.64908988 6.17656151 6.97883978 7.7109375 12.421875 C8.08770084 16.8926944 8.08257586 21.36018331 8.08154297 25.84448242 C8.08593346 27.98240858 8.12235801 30.11829521 8.16015625 32.25585938 C8.16602252 33.624993 8.16999318 34.99413635 8.171875 36.36328125 C8.18009277 37.59763916 8.18831055 38.83199707 8.19677734 40.10375977 C7.62354651 44.0187247 6.45881448 45.63234425 3.7109375 48.421875 C1.4921875 49.75 1.4921875 49.75 -0.7890625 50.671875 C-1.541875 50.98640625 -2.2946875 51.3009375 -3.0703125 51.625 C-11.9549634 54.81596617 -24.17929228 55.04992662 -33.1015625 51.796875 C-38.2419187 49.29305262 -40.84462007 46.03562797 -43.6015625 41.046875 C-44.95870235 35.86506829 -45.12308811 31.44648305 -42.6640625 26.671875 C-39.44042948 21.75807329 -35.37182272 19.4985569 -29.7265625 18.171875 C-23.60600745 17.10661809 -17.47998566 17.24720946 -11.2890625 17.421875 C-11.6190625 15.771875 -11.9490625 14.121875 -12.2890625 12.421875 C-15.92219672 11.21083026 -19.25860726 11.27617908 -23.0390625 11.296875 C-23.73 11.29300781 -24.4209375 11.28914062 -25.1328125 11.28515625 C-29.61560215 11.29358255 -33.8657801 11.69238078 -38.2890625 12.421875 C-40.72969877 8.7609206 -41.13013124 5.6787127 -40.2890625 1.421875 C-32.34705206 -7.42779377 -9.29725128 -5.97440696 0 0 Z " fill="#231651" transform="translate(155.2890625,121.578125)"/>
<path d="M0 0 C0.75539063 -0.020625 1.51078125 -0.04125 2.2890625 -0.0625 C6.9290196 -0.09494725 9.80611883 0.33054644 13.625 3.25 C15.52385096 5.14885096 14.74867506 7.82247903 14.7578125 10.33984375 C14.625 12.25 14.625 12.25 13.625 14.25 C11.11328125 14.62890625 11.11328125 14.62890625 7.9375 14.8125 C3.71200077 15.07034491 -0.16419334 15.54819889 -4.375 16.25 C-4.375 29.12 -4.375 41.99 -4.375 55.25 C-7.54752724 56.04313181 -10.09031499 56.49591401 -13.3125 56.625 C-14.14652344 56.67398438 -14.98054688 56.72296875 -15.83984375 56.7734375 C-19.67678621 55.98121826 -20.97865764 54.31718061 -23.375 51.25 C-24.09377896 48.15184334 -24.05303233 45.13804443 -24.00390625 41.96875 C-24.00631821 41.07764526 -24.00873016 40.18654053 -24.01121521 39.26843262 C-24.01023803 37.38903339 -23.99687511 35.50960493 -23.97192383 33.63037109 C-23.93760867 30.7590932 -23.95127211 27.89089362 -23.97070312 25.01953125 C-23.96380438 23.19009111 -23.95413173 21.36065889 -23.94140625 19.53125 C-23.94636612 18.67591675 -23.95132599 17.8205835 -23.95643616 16.93933105 C-23.87624141 12.86620262 -23.70276988 10.76480335 -21.46679688 7.25292969 C-19.46041978 5.33179084 -17.82771682 4.14372095 -15.3125 3 C-14.64089844 2.68546875 -13.96929687 2.3709375 -13.27734375 2.046875 C-8.8108385 0.17589539 -4.77168652 0.03224113 0 0 Z " fill="#221550" transform="translate(93.375,117.75)"/>
<path d="M0 0 C2.22747326 -0.13563775 4.45734323 -0.23227853 6.6875 -0.3125 C8.54955078 -0.39951172 8.54955078 -0.39951172 10.44921875 -0.48828125 C14 0 14 0 16.92651367 1.8190918 C20.00509147 6.54189765 19.62445501 10.68751675 19.48828125 16.20703125 C19.48120651 17.28756271 19.47413177 18.36809418 19.46684265 19.48136902 C19.43889847 22.92578945 19.37615633 26.36857255 19.3125 29.8125 C19.28741733 32.15036712 19.26460411 34.48825976 19.24414062 36.82617188 C19.18907176 42.55133801 19.10544419 48.27555203 19 54 C15.83800849 55.05399717 13.38539814 55.23445913 10.0625 55.3125 C9.02222656 55.34988281 7.98195312 55.38726562 6.91015625 55.42578125 C3.23719763 54.88839536 2.3001543 53.85806698 0 51 C-0.48101807 48.58282471 -0.48101807 48.58282471 -0.45410156 45.86425781 C-0.45379944 44.84350159 -0.45349731 43.82274536 -0.45318604 42.77105713 C-0.43254089 41.67613953 -0.41189575 40.58122192 -0.390625 39.453125 C-0.38496521 38.3267865 -0.37930542 37.200448 -0.37347412 36.03997803 C-0.35108545 32.44288618 -0.30088213 28.84679074 -0.25 25.25 C-0.22993833 22.8112123 -0.21168698 20.37240899 -0.1953125 17.93359375 C-0.15121244 11.95538926 -0.08427463 5.97776581 0 0 Z " fill="#241952" transform="translate(240,119)"/>
<path d="M0 0 C5.56890517 0.47986031 10.67067568 1.29915181 16 3 C13.68019083 15.60280942 7.30085142 24.39321741 -3 32 C-12.70677301 37.39762186 -21.98958744 39.3551746 -33 39 C-33 33.72 -33 28.44 -33 23 C-30.56625 22.62875 -28.1325 22.2575 -25.625 21.875 C-17.74888324 20.48255944 -10.69289774 18.39463602 -5.35546875 12.04296875 C-2.84935648 8.26574478 -1.20495345 4.38164891 0 0 Z " fill="#DF054D" transform="translate(520,158)"/>
<path d="M0 0 C2.63016161 2.1727422 4.47336894 3.94673788 6 7 C6.97354694 20.554769 6.97354694 20.554769 3 26 C-0.75047482 28.50031654 -2.55856266 28.53603554 -7 28 C-10.71524894 24.93088131 -12.81420385 22.81327632 -13.30859375 17.98828125 C-13.69979852 6.83301803 -13.69979852 6.83301803 -10.4375 2.625 C-7.10002946 -0.47632875 -4.51332813 -0.98472614 0 0 Z " fill="#F8F7F9" transform="translate(489,132)"/>
<path d="M0 0 C3.52488367 1.96667329 5.70121477 4.10364431 7 8 C7.57785229 14.35637518 7.27837831 19.46067113 4 25 C1.9375 27 1.9375 27 -1 28 C-2.73193509 27.91524028 -4.46129175 27.76364476 -6.18359375 27.5625 C-7.0852124 27.46066406 -7.98683105 27.35882813 -8.91577148 27.25390625 C-9.60356689 27.17011719 -10.2913623 27.08632812 -11 27 C-11.08676908 22.87513162 -11.14031295 18.75049616 -11.1875 14.625 C-11.21263672 13.449375 -11.23777344 12.27375 -11.26367188 11.0625 C-11.27333984 9.94101563 -11.28300781 8.81953125 -11.29296875 7.6640625 C-11.3086792 6.62717285 -11.32438965 5.5902832 -11.34057617 4.52197266 C-11.22818604 3.68972168 -11.1157959 2.8574707 -11 2 C-7.30751438 -0.46165708 -4.28488597 -0.80846905 0 0 Z " fill="#F4F3F6" transform="translate(300,132)"/>
<path d="M0 0 C3.53370982 2.19875278 5.4513294 4.1726687 7 8 C7.68439026 13.19659119 7.76773846 18.33094734 5.3125 23.0625 C2.85106996 26.1891814 1.84258433 27.19573816 -2 28 C-8.35384615 28.32307692 -8.35384615 28.32307692 -11 27 C-11 18.75 -11 10.5 -11 2 C-6.69421007 -0.15289496 -4.71947318 -0.49678665 0 0 Z " fill="#F5F5F7" transform="translate(204,132)"/>
<path d="M0 0 C0 7.26 0 14.52 0 22 C-4.08223009 24.04111504 -5.58667461 24.61786555 -10 24 C-14.35894664 21.90124791 -14.35894664 21.90124791 -16 19 C-16.87976003 13.77135527 -17.51779414 7.82987991 -14.93359375 3.01171875 C-9.92307785 -2.05862421 -7.59379666 -0.84375518 0 0 Z " fill="#F9F8FA" transform="translate(429,133)"/>
<path d="M0 0 C3.5386994 1.65139305 4.81070153 2.71605229 7 6 C7.67226891 12.94677871 7.67226891 12.94677871 5.125 16.9375 C1.8698054 20.09695358 -0.42413238 20.33421243 -4.9609375 20.29296875 C-8.13134567 19.83745033 -9.8192402 18.24684343 -12 16 C-13.60086627 12.79826746 -13.49917089 9.47422941 -13 6 C-9.33747506 0.26204426 -6.68906908 -0.45349621 0 0 Z " fill="#21144E" transform="translate(252,94)"/>
<path d="M0 0 C2 2 2 2 2.1875 4.875 C2.03329046 7.44515895 1.61722987 9.53108052 1 12 C1.33 12.66 1.66 13.32 2 14 C-1.67416528 18.0081803 -5.14346504 20.52591615 -10 23 C-10.66 23 -11.32 23 -12 23 C-12.33 22.01 -12.66 21.02 -13 20 C-13.66 19.34 -14.32 18.68 -15 18 C-14.48050781 17.56429687 -13.96101563 17.12859375 -13.42578125 16.6796875 C-5.05630866 9.57883521 -5.05630866 9.57883521 0 0 Z " fill="#F7F2F6" transform="translate(513,156)"/>
<path d="M0 0 C0.98484375 0.02707031 1.9696875 0.05414063 2.984375 0.08203125 C3.73203125 0.11683594 4.4796875 0.15164062 5.25 0.1875 C5.25 3.1575 5.25 6.1275 5.25 9.1875 C2.30770079 10.1682664 0.2591216 10.35238128 -2.8125 10.375 C-4.12927734 10.39626953 -4.12927734 10.39626953 -5.47265625 10.41796875 C-7.75 10.1875 -7.75 10.1875 -9.75 8.1875 C-10.125 5.75 -10.125 5.75 -9.75 3.1875 C-6.62371969 0.09057443 -4.30525775 -0.15375921 0 0 Z " fill="#EDECF2" transform="translate(139.75,150.8125)"/>
<path d="M0 0 C0.89203125 0.01804688 1.7840625 0.03609375 2.703125 0.0546875 C3.71632813 0.08949219 3.71632813 0.08949219 4.75 0.125 C4.75 3.095 4.75 6.065 4.75 9.125 C2.3058206 10.3470897 0.53970128 10.36141068 -2.1875 10.4375 C-3.50041016 10.49357422 -3.50041016 10.49357422 -4.83984375 10.55078125 C-7.25 10.125 -7.25 10.125 -9.0703125 8.23828125 C-10.25 6.125 -10.25 6.125 -10.1875 4 C-8.12820586 -0.11858827 -4.1822724 -0.1100598 0 0 Z " fill="#F2F1F5" transform="translate(361.25,150.875)"/>
<path d="M0 0 C0.33 0 0.66 0 1 0 C1.05607422 1.22976562 1.05607422 1.22976562 1.11328125 2.484375 C1.21189453 4.10085937 1.21189453 4.10085937 1.3125 5.75 C1.37050781 6.81734375 1.42851562 7.8846875 1.48828125 8.984375 C2.03714479 12.21889908 2.95985816 13.51634907 5 16 C4.6875 18.25 4.6875 18.25 4 20 C3.4225 19.814375 2.845 19.62875 2.25 19.4375 C-0.20692525 18.95976454 -1.64397534 19.24270636 -4 20 C-3.814375 19.113125 -3.62875 18.22625 -3.4375 17.3125 C-3.01957516 14.14821189 -3.19222258 12.05160358 -4 9 C-3.01 8.34 -2.02 7.68 -1 7 C-0.26393501 3.43230448 -0.26393501 3.43230448 0 0 Z " fill="#251952" transform="translate(412,140)"/>
<path d="M0 0 C0.66 0.66 1.32 1.32 2 2 C0.6696875 2.0928125 0.6696875 2.0928125 -0.6875 2.1875 C-4.74903297 3.18372507 -6.21044932 4.97798676 -9 8 C-9.66 8 -10.32 8 -11 8 C-11.33 6.68 -11.66 5.36 -12 4 C-8.02965197 0.14996554 -5.50249164 -0.62292358 0 0 Z " fill="#231752" transform="translate(252,94)"/>
<path d="M0 0 C0.33 0.99 0.66 1.98 1 3 C-1.5674355 6.85115325 -3.65013709 7.5500457 -8 9 C-11.4375 8.6875 -11.4375 8.6875 -14 8 C-13.44828125 7.73445312 -12.8965625 7.46890625 -12.328125 7.1953125 C-9.72960475 5.86117291 -7.24877045 4.38741369 -4.75 2.875 C-3.85796875 2.33617187 -2.9659375 1.79734375 -2.046875 1.2421875 C-1.37140625 0.83226562 -0.6959375 0.42234375 0 0 Z " fill="#DC0E4A" transform="translate(513,172)"/>
<path d="M0 0 C1.65 0 3.3 0 5 0 C5 0.66 5 1.32 5 2 C5.66 2.33 6.32 2.66 7 3 C5.02 4.32 3.04 5.64 1 7 C1.66 7.33 2.32 7.66 3 8 C1.68 8 0.36 8 -1 8 C-1.93065133 5.39417629 -2.14917407 4.35801776 -1.0625 1.75 C-0.711875 1.1725 -0.36125 0.595 0 0 Z " fill="#1E114B" transform="translate(361,139)"/>
<path d="M0 0 C1.32 0.66 2.64 1.32 4 2 C2.625 4 2.625 4 1 6 C0.34 6 -0.32 6 -1 6 C-1 7.65 -1 9.3 -1 11 C-1.66 11 -2.32 11 -3 11 C-3.36923077 4.6 -3.36923077 4.6 -1.5 1.5625 C-1.005 1.046875 -0.51 0.53125 0 0 Z " fill="#2E2755" transform="translate(400,176)"/>
<path d="M0 0 C1.485 0.99 1.485 0.99 3 2 C3 2.66 3 3.32 3 4 C6.96 4 10.92 4 15 4 C12.49990913 6.50009087 11.5787141 6.29712739 8.125 6.3125 C7.26132812 6.32925781 6.39765625 6.34601563 5.5078125 6.36328125 C2.56903308 5.93757021 1.20166201 4.94053466 -1 3 C-0.67 2.01 -0.34 1.02 0 0 Z " fill="#2B2354" transform="translate(273,188)"/>
<path d="M0 0 C0.66 0.33 1.32 0.66 2 1 C1.360625 1.78375 0.72125 2.5675 0.0625 3.375 C-2.78008655 7.55350178 -2.80539194 12.07641598 -3 17 C-3.33 17 -3.66 17 -4 17 C-4.22127098 14.70954632 -4.4266504 12.41755236 -4.625 10.125 C-4.74101562 8.84882813 -4.85703125 7.57265625 -4.9765625 6.2578125 C-4.98816406 4.64519531 -4.98816406 4.64519531 -5 3 C-4.34 2.34 -3.68 1.68 -3 1 C-2.34 1 -1.68 1 -1 1 C-0.67 0.67 -0.34 0.34 0 0 Z " fill="#12093C" transform="translate(415,133)"/>
<path d="M0 0 C2.475 0.495 2.475 0.495 5 1 C4.835 1.598125 4.67 2.19625 4.5 2.8125 C3.8885876 5.11344336 3.8885876 5.11344336 4 8 C3.01 8 2.02 8 1 8 C-0.35439668 5.29120665 -0.06501451 2.99066732 0 0 Z " fill="#160F42" transform="translate(115,125)"/>
<path d="M0 0 C3.375 1.6875 3.375 1.6875 4.375 3.6875 C0.745 3.3575 -2.885 3.0275 -6.625 2.6875 C-6.625 1.6975 -6.625 0.7075 -6.625 -0.3125 C-3.625 -1.3125 -3.625 -1.3125 0 0 Z " fill="#170C47" transform="translate(201.625,129.3125)"/>
<path d="M0 0 C0.33 0 0.66 0 1 0 C1.08114106 1.77007714 1.13925505 3.54122098 1.1875 5.3125 C1.22230469 6.29863281 1.25710938 7.28476563 1.29296875 8.30078125 C1 11 1 11 -0.51171875 12.85546875 C-1.00285156 13.23316406 -1.49398438 13.61085937 -2 14 C-2.66 13.34 -3.32 12.68 -4 12 C-3 9 -3 9 -1 7 C-0.59952556 4.67724823 -0.2602896 2.34260643 0 0 Z " fill="#44396A" transform="translate(412,140)"/>
<path d="M0 0 C0.99 0.33 1.98 0.66 3 1 C2.195625 1.763125 1.39125 2.52625 0.5625 3.3125 C-3.09375182 7.59878391 -2.89401963 12.58536645 -3 18 C-3.33 18 -3.66 18 -4 18 C-4.738041 5.33029613 -4.738041 5.33029613 0 0 Z " fill="#29204D" transform="translate(479,132)"/>
<path d="M0 0 C6.93 0.495 6.93 0.495 14 1 C11.81442503 3.18557497 10.9822365 3.55919497 8 4 C5.24667526 3.56288458 2.69068047 2.76235947 0 2 C0 1.34 0 0.68 0 0 Z " fill="#170D40" transform="translate(352,160)"/>
<path d="M0 0 C0.33 0 0.66 0 1 0 C1.06058594 0.69867188 1.12117188 1.39734375 1.18359375 2.1171875 C1.26738281 3.02726563 1.35117188 3.93734375 1.4375 4.875 C1.55931641 6.23238281 1.55931641 6.23238281 1.68359375 7.6171875 C1.86989285 10.01110861 1.86989285 10.01110861 3 12 C2.34 12.66 1.68 13.32 1 14 C-1.25068913 9.49862174 -1.24661958 5.93239162 -1 1 C-0.67 0.67 -0.34 0.34 0 0 Z " fill="#282253" transform="translate(112,151)"/>
<path d="M0 0 C0.99 0.33 1.98 0.66 3 1 C0.66666667 3.33333333 -1.66666667 5.66666667 -4 8 C-4.66 7.01 -5.32 6.02 -6 5 C-1.60546875 0.99609375 -1.60546875 0.99609375 0 0 Z " fill="#1A1145" transform="translate(181,121)"/>
<path d="M0 0 C3.375 0.375 3.375 0.375 5.375 2.375 C1.085 3.035 -3.205 3.695 -7.625 4.375 C-3.625 0.375 -3.625 0.375 0 0 Z " fill="#2C2652" transform="translate(248.625,93.625)"/>
<path d="M0 0 C1.65 0 3.3 0 5 0 C5 1.65 5 3.3 5 5 C4.01 5.495 4.01 5.495 3 6 C3 5.34 3 4.68 3 4 C2.01 4 1.02 4 0 4 C0 2.68 0 1.36 0 0 Z " fill="#190F44" transform="translate(441,176)"/>
<path d="M0 0 C4.29 0 8.58 0 13 0 C10.50494038 2.49505962 9.32671112 2.35948376 5.875 2.625 C4.96492188 2.69976562 4.05484375 2.77453125 3.1171875 2.8515625 C2.06917969 2.92503906 2.06917969 2.92503906 1 3 C0.67 2.01 0.34 1.02 0 0 Z " fill="#140C40" transform="translate(416,156)"/>
<path d="M0 0 C2.64 0 5.28 0 8 0 C8.66 1.32 9.32 2.64 10 4 C8.35 3.67 6.7 3.34 5 3 C5 2.67 5 2.34 5 2 C3.35 1.67 1.7 1.34 0 1 C0 0.67 0 0.34 0 0 Z " fill="#3C3162" transform="translate(131,139)"/>
<path d="M0 0 C0 0.66 0 1.32 0 2 C0.66 2.33 1.32 2.66 2 3 C-1.57644848 4.2380014 -4.33694766 3.74926071 -8 3 C-2 0 -2 0 0 0 Z " fill="#E11E5A" transform="translate(507,177)"/>
<path d="M0 0 C0.99 0 1.98 0 3 0 C3.33 1.65 3.66 3.3 4 5 C3.01 5.495 3.01 5.495 2 6 C0 5 0 5 -0.6875 3 C-0.790625 2.34 -0.89375 1.68 -1 1 C-0.67 0.67 -0.34 0.34 0 0 Z " fill="#2B1E5C" transform="translate(305,154)"/>
</svg>
